<svg width="32" height="32" viewBox="0 0 32 32" fill="none" xmlns="http://www.w3.org/2000/svg">
<rect width="32" height="32" fill="white"/>
<path d="M18.0232 6.62916C16.2857 5.95396 15.1467 5.48338 15.1467 4.25575C15.1467 3.21228 16.0347 2.57801 17.3668 2.57801C18.4672 2.57801 19.8378 2.98721 20.8031 3.58056L21.5753 1.06394C20.5907 0.470588 18.9305 0 17.3668 0C14.3938 0 12.3475 1.69821 12.3475 4.5422C12.3475 7.09974 14.0463 8.14322 16.3822 9.0844C18.332 9.84143 19.2201 10.2097 19.2201 11.3964C19.2201 12.5831 18.4479 13.2379 16.9807 13.2379C15.4363 13.2379 13.8533 12.5217 12.7143 11.601L12 11.0691V28.7673C12 30.9974 13.0425 32 14.7992 32C15.6873 32 16.3436 31.7545 16.7683 31.5499L16.4788 29.4015C16.2278 29.4834 15.8803 29.6266 15.5135 29.6266C14.8958 29.6266 14.5483 29.2583 14.5483 28.3376V15.5294C15.2819 15.734 16.0541 15.8363 16.8263 15.8363C19.9537 15.8363 22 14.0972 22 11.0486C22 8.28645 20.3012 7.50895 18.0232 6.62916Z" fill="#1D1D1B"/>
</svg>
