<svg width="30" height="12" viewBox="0 0 30 12" fill="none" xmlns="http://www.w3.org/2000/svg">
<path d="M12.3412 2.14897L12.172 9.91117L10.9242 11.3917L1.97755 11.3705L0.370117 9.36126L0.602773 1.30295L1.78719 0.11853L11.2626 0.414635L12.3412 2.14897Z" fill="#66F777"/>
<path d="M2.0625 7.75389L2.37976 2.76239L3.14117 1.53567L10.6707 1.45108L5.67923 3.67186L2.0625 7.75389Z" fill="#1D1D1B"/>
<path d="M29.8954 2.14897L29.7262 9.91117L28.4784 11.3917L19.5318 11.3705L17.9243 9.36126L18.157 1.30295L19.3414 0.11853L28.8168 0.414635L29.8954 2.14897Z" fill="#66F777"/>
<path d="M19.6167 7.75389L19.934 2.76239L20.6954 1.53567L28.2249 1.45108L23.2334 3.67186L19.6167 7.75389Z" fill="#1D1D1B"/>
</svg>
