<svg width="35" height="18" viewBox="0 0 35 18" fill="none" xmlns="http://www.w3.org/2000/svg">
<path d="M1 15.6087V3.95652V1H30.3138L34 3.95652V14.7391L30.3138 17H4.33511L1 15.6087Z" fill="#66F777" stroke="black" stroke-width="1.03942"/>
<path d="M9.15789 3H4L9.15789 5.33333L8.60526 12.5L4 14H11V4.66667L9.15789 3Z" fill="black"/>
<path d="M20.1579 3H15L20.1579 5.33333L19.6053 12.5L15 14H22V4.66667L20.1579 3Z" fill="black"/>
<path d="M28.4211 3H24L28.4211 5.33333L27.9474 12.5L24 14H30V4.66667L28.4211 3Z" fill="black"/>
<rect x="4" y="3" width="2" height="11" fill="black"/>
<rect x="13" y="3" width="2" height="11" fill="black"/>
<rect x="24" y="3" width="1" height="11" fill="black"/>
</svg>
