<svg width="24" height="21" viewBox="0 0 24 21" fill="none" xmlns="http://www.w3.org/2000/svg">
<path d="M7.5982 0H14.2355L19.0752 2.55609C20.1353 3.642 22.2555 5.98425 22.2555 6.66587C22.2555 7.34749 23.0852 10.759 23.5 12.3795L21.7024 16.5895L15.8026 21L10.4559 20.6492L4.32565 18.0931L1.97495 14.3842L0.5 7.7685L1.97495 3.358L7.5982 0Z" fill="black"/>
<path d="M13.2879 2H7.15758L4.68485 4.68323C4.2899 6.32298 3.5 9.7118 3.5 10.1491C3.5 10.5863 4.94242 13.7101 5.66364 15.2174L9.99091 18H15.6061L20.5 13.528L20.1909 7.61491C19.2121 6.19048 17.203 3.29193 16.997 3.09317C16.7909 2.89441 14.4384 2.28157 13.2879 2Z" fill="#F2EBE9"/>
<path d="M4.18044 4.17949L8.57714 8.17949L8.10606 10.5897L3.5 11.5128L4.18044 13L8.10606 12.5385L9.10055 13.9231L5.75069 15.5128L6.9022 17.3077L10.1474 14.9487L11.4559 15.5128V19H13.9683L12.9215 14.5385L14.6488 14.9487L16.6901 18.6923L18.6267 18.0769L15.905 13.9231L16.6901 13.3077L19.7259 15.5128L22.186 14.5385L17.2658 11.2051L17.6322 10.0256L22.186 9.41026L22.5 7.76923L16.6901 8.17949L15.905 7L20.2493 4.69231L18.6267 3.46154L14.23 5.51282L15.905 1.51282L14.23 1L12.241 5.51282L10.6708 5.25641L10.1474 1H8.57714L9.10055 5.51282L4.65152 2.94872L4.18044 4.17949Z" fill="black"/>
<path d="M11.8171 8L10.2317 8.76577L9.5 11.6937C10.0285 12.1291 11.1341 13 11.3293 13H11.8171L13.7276 12.4595L13.9715 11.6937L14.5 10.6126L13.9715 9.03604L13.0366 8.31532L11.8171 8Z" fill="#F2EBE9"/>
<path d="M11.8171 8L10.2317 8.76577L9.5 11.6937C10.0285 12.1291 11.1341 13 11.3293 13H11.8171L13.7276 12.4595L13.9715 11.6937L14.5 10.6126L13.9715 9.03604L13.0366 8.31532L11.8171 8Z" stroke="black"/>
<path d="M11.8171 8L10.2317 8.76577L9.5 11.6937C10.0285 12.1291 11.1341 13 11.3293 13H11.8171L13.7276 12.4595L13.9715 11.6937L14.5 10.6126L13.9715 9.03604L13.0366 8.31532L11.8171 8Z" stroke="black" stroke-opacity="0.2"/>
</svg>
