<svg width="20" height="18" viewBox="0 0 20 18" fill="none" xmlns="http://www.w3.org/2000/svg">
<path d="M1.18044 3.17949L5.57714 7.17949L5.10606 9.58974L0.5 10.5128L1.18044 12L5.10606 11.5385L6.10055 12.9231L2.75069 14.5128L3.9022 16.3077L7.14738 13.9487L8.45592 14.5128V18H10.9683L9.92149 13.5385L11.6488 13.9487L13.6901 17.6923L15.6267 17.0769L12.905 12.9231L13.6901 12.3077L16.7259 14.5128L19.186 13.5385L14.2658 10.2051L14.6322 9.02564L19.186 8.41026L19.5 6.76923L13.6901 7.17949L12.905 6L17.2493 3.69231L15.6267 2.46154L11.23 4.51282L12.905 0.512821L11.23 0L9.24105 4.51282L7.6708 4.25641L7.14738 0H5.57714L6.10055 4.51282L1.65152 1.94872L1.18044 3.17949Z" fill="#D9D9D9"/>
</svg>
