<svg width="59" height="60" viewBox="0 0 59 60" fill="none" xmlns="http://www.w3.org/2000/svg">
<path d="M43.2284 14.6456L37.0355 14.0491L34.0977 6.14969L23.9932 6.82605L24.4203 14.0326L15.263 16.1147L10.3878 28.597L13.0399 42.1394L22.1408 44.5238L23.515 53.136L34.643 53.4733L36.956 45.7832L41.7332 45.2896L48.8184 36.0874L49.6342 26.6808L43.2284 14.6456Z" fill="black"/>
<path d="M41.8376 18.6485L37.529 18.8263L38.9681 40.6803L45.299 37.4367L46.5883 28.733L41.8376 18.6485Z" fill="#66F777"/>
<path d="M34.3073 48.9303L34.2754 10.4583L30.3589 10.7126L28.4251 47.7839L34.3073 48.9303Z" fill="#66F777"/>
<path d="M23.7757 42.4002L20.5237 18.3612L16.0108 24.8084L17.7971 37.5715L23.7757 42.4002Z" fill="#66F777"/>
</svg>
