<svg width="56" height="22" viewBox="0 0 56 22" fill="none" xmlns="http://www.w3.org/2000/svg">
<path d="M0.570501 7.4235L0.570501 1.59335L1.54214 0.405792L3.62939 1.59335L3.62939 20.7031L1.6501 20.7031L0.570501 7.4235Z" fill="black"/>
<path d="M9.2793 0.405792L6.18439 1.59335L6.18439 20.7031L9.2793 20.7031L10.071 5.55205L9.2793 0.405792Z" fill="black"/>
<path d="M15.0013 0.405792L12.6261 1.59335L12.6261 19.0836L15.0013 21.3508L15.5771 19.8753L15.5771 3.53673L15.0013 0.405792Z" fill="black"/>
<path d="M21.0474 1.59335L20.2196 0.405792L17.9523 0.405792L17.9523 19.1915L18.4562 20.7031L21.0474 19.4794L21.0474 1.59335Z" fill="black"/>
<path d="M34.795 7.4235L34.795 1.59335L35.7667 0.405792L37.854 1.59335L37.854 20.7031L35.8747 20.7031L34.795 7.4235Z" fill="black"/>
<path d="M43.5039 0.405792L40.4089 1.59335L40.4089 20.7031L43.5039 20.7031L44.2957 5.55205L43.5039 0.405792Z" fill="black"/>
<path d="M49.2262 0.405792L46.851 1.59335L46.851 19.0836L49.2262 21.3508L49.802 19.8753L49.802 3.53673L49.2262 0.405792Z" fill="black"/>
<path d="M55.2722 1.59335L54.4446 0.405792L52.1773 0.405792L52.1773 19.1915L52.6811 20.7031L55.2722 19.4794L55.2722 1.59335Z" fill="black"/>
</svg>
