<svg width="110" height="33" viewBox="0 0 110 33" fill="none" xmlns="http://www.w3.org/2000/svg">
<path d="M29.1069 18.266C29.1069 21.012 26.8867 23.2906 24.0823 23.2906C21.3362 23.2906 19.0576 21.0704 19.0576 18.266C19.0576 15.52 21.2778 13.2413 24.0823 13.2413C26.8867 13.2998 29.1069 15.52 29.1069 18.266Z" fill="#66F777"/>
<path d="M10.8354 18.266C10.8354 21.012 8.61526 23.2906 5.8108 23.2906C3.06476 23.2906 0.786133 21.0704 0.786133 18.266C0.786133 15.52 3.00634 13.2413 5.8108 13.2413C8.61526 13.2998 10.8354 15.52 10.8354 18.266Z" fill="#66F777"/>
<path d="M59 8L49.5 3L49 31L57.5 27.5L59 8Z" fill="#66F777"/>
<path d="M86 8L72 0.5L71 32.5L85 27.5L86 8Z" fill="#66F777"/>
<path d="M109.5 8L99 3L98.5 31.5L109 28.5L109.5 8Z" fill="#66F777"/>
</svg>
