<svg width="31" height="28" viewBox="0 0 31 28" fill="none" xmlns="http://www.w3.org/2000/svg">
<path d="M11.9434 0L9.20231 3.32849L3.52429 1.95794L0 8.02754L4.30746 10.5729L1.95794 16.6425L7.24437 24.2784L16.0551 27.9985L20.9499 23.691L26.4322 26.2364L30.9354 19.971L27.4111 15.6635L28.9775 12.7266L26.4322 5.09064L21.3415 0.978969L11.9434 0Z" fill="black"/>
<path d="M13.706 2.34961L12.1396 4.89493L25.2578 12.5309L25.8452 7.63604L21.3419 3.52437L13.706 2.34961Z" fill="#66F777"/>
<path d="M28.1947 18.4047L6.07002 3.52437L4.69946 5.8739L25.2578 21.3416L28.1947 18.4047Z" fill="#66F777"/>
<path d="M20.363 21.929L5.28684 14.4888L7.24478 19.5795L15.2723 23.4953L20.363 21.929Z" fill="#66F777"/>
</svg>
