<svg width="39" height="15" viewBox="0 0 39 15" fill="none" xmlns="http://www.w3.org/2000/svg">
<path d="M0.132219 5.05139L0.132219 1.01078L0.805616 0.187744L2.2522 1.01078L2.2522 14.2549L0.880437 14.2549L0.132219 5.05139Z" fill="#66F777"/>
<path d="M6.16808 0.187744L4.02313 1.01078L4.02313 14.2549L6.16808 14.2549L6.7168 3.75438L6.16808 0.187744Z" fill="#66F777"/>
<path d="M10.1339 0.187744L8.48773 1.01078L8.48773 13.1325L10.1339 14.7038L10.533 13.6812L10.533 2.35765L10.1339 0.187744Z" fill="#66F777"/>
<path d="M14.324 1.01078L13.7503 0.187744L12.179 0.187744L12.179 13.2073L12.5282 14.2549L14.324 13.4068L14.324 1.01078Z" fill="#66F777"/>
<path d="M23.8521 5.05139L23.8521 1.01078L24.5256 0.187744L25.9722 1.01078L25.9722 14.2549L24.6004 14.2549L23.8521 5.05139Z" fill="#66F777"/>
<path d="M29.8876 0.187744L27.7425 1.01078L27.7425 14.2549L29.8876 14.2549L30.4363 3.75438L29.8876 0.187744Z" fill="#66F777"/>
<path d="M33.8534 0.187744L32.2072 1.01078L32.2072 13.1325L33.8534 14.7038L34.2524 13.6812L34.2524 2.35765L33.8534 0.187744Z" fill="#66F777"/>
<path d="M38.0437 1.01078L37.4701 0.187744L35.8988 0.187744L35.8988 13.2073L36.2479 14.2549L38.0437 13.4068L38.0437 1.01078Z" fill="#66F777"/>
</svg>
