<svg width="76" height="22" viewBox="0 0 76 22" fill="none" xmlns="http://www.w3.org/2000/svg">
<path d="M19.7987 12.2141C19.7987 14.102 18.2466 15.6685 16.2861 15.6685C14.3664 15.6685 12.7734 14.1421 12.7734 12.2141C12.7734 10.3262 14.3255 8.75964 16.2861 8.75964C18.2466 8.79981 19.7987 10.3262 19.7987 12.2141Z" fill="#66F777"/>
<path d="M7.02529 12.2141C7.02529 14.102 5.47321 15.6685 3.51266 15.6685C1.59295 15.6685 0 14.1421 0 12.2141C0 10.3262 1.55211 8.75964 3.51266 8.75964C5.47321 8.79981 7.02529 10.3262 7.02529 12.2141Z" fill="#66F777"/>
<path d="M40.6964 5.15625L34.0551 1.71875L33.7056 20.9688L39.6478 18.5625L40.6964 5.15625Z" fill="#66F777"/>
<path d="M59.5716 5.15625L49.7845 0L49.0854 22L58.8725 18.5625L59.5716 5.15625Z" fill="#66F777"/>
<path d="M76.0001 5.15625L68.6597 1.71875L68.3102 21.3125L75.6505 19.25L76.0001 5.15625Z" fill="#66F777"/>
</svg>
