<svg width="41" height="20" viewBox="0 0 41 20" fill="none" xmlns="http://www.w3.org/2000/svg">
<path d="M7.41356 0.862255L13.0454 0H18.3643L22.4943 2.09405L25.6857 6.65168V10.5318C24.2673 13.1391 21.1552 18.3907 20.0538 18.5385C18.6772 18.7233 14.9852 18.2921 13.0454 17.6146C11.1055 16.9372 7.41356 16.1365 6.78779 15.5822C6.16203 15.0279 4.03447 11.5789 3.84674 11.2093C3.69656 10.9137 4.36821 7.43182 4.7228 5.72784L7.41356 0.862255Z" fill="black"/>
<path d="M12.5764 2.73254L7.84812 5.27118L6.55859 8.59558L7.41827 13.6124L11.7781 15.2444L17.9187 15.8488L21.6644 11.0738L22.9539 8.59558C22.4627 7.66878 21.4556 5.70637 21.3574 5.27118C21.2591 4.83598 19.024 3.76009 17.9187 3.27654L12.5764 2.73254Z" fill="#F2EBE9"/>
<path d="M10.3151 5.93677L8.82371 10.1001L10.8743 13.3314L14.6674 14.1366L18.3932 12.3372L19.3835 7.12329L16.2327 4.9922L10.3151 5.93677Z" fill="black"/>
<path d="M11.3872 7.27242L10.8228 8.6414L10.3838 10.308L12.0771 12.5698H14.7738L17.2824 11.2603L18.035 8.93901L17.2824 7.27242L14.7738 6.55817L11.3872 7.27242Z" fill="#F2EBE9"/>
<path d="M10.0665 7.10943L7.86937 4.61657L8.87377 3.30782L10.757 6.36158L10.0665 7.10943Z" fill="black"/>
<path d="M13.5191 6.36158V2.18604H15.0257L14.7118 6.04997L13.5191 6.36158Z" fill="black"/>
<path d="M16.9717 6.67318L18.9805 3.30782L20.801 3.99336L18.2272 7.54568L16.9717 6.67318Z" fill="black"/>
<path d="M18.2272 9.35301L23.2492 8.72979L23.5003 10.7241L18.2272 10.5371V9.35301Z" fill="black"/>
<path d="M20.4244 14.3387L17.5367 12.3444L16.5951 13.1546L18.9805 15.2736L20.4244 14.3387Z" fill="black"/>
<path d="M15.9673 16.3953L15.0257 13.5909L14.0841 14.0271L15.0257 16.3953H15.9673Z" fill="black"/>
<path d="M13.0797 16.3953V13.5909H11.6986L10.757 16.0837L13.0797 16.3953Z" fill="black"/>
<path d="M6.99052 14.3387L10.0665 11.8459L9.31319 11.098L5.60947 13.1546L6.99052 14.3387Z" fill="black"/>
<path d="M4.91895 8.29354L9.31319 9.35301L10.0665 8.72979L5.60947 6.67318L4.91895 8.29354Z" fill="black"/>
<path d="M2.94862 11.2321V7.10468H0.368578L1.84289 7.98018H0.368578L1.84289 8.66808L0 9.10583L2.33432 10.0439H0.368578L2.33432 10.6692L0.368578 11.2321L2.33432 11.92L0.368578 12.2326L2.33432 12.858L0.368578 13.2332L2.94862 13.8586L0.368578 14.3589L2.94862 14.8592L0.675726 15.5471L4.23864 16.2975L1.10573 16.6102L5.09866 17.2355L1.47431 17.5482L5.71295 18.0485L1.84289 18.3612L7.31012 18.7989L2.94862 19.2367L15.8488 19.6744L6.81869 17.5482L4.23864 14.8592L2.94862 11.2321Z" fill="black"/>
<path d="M40.9998 12.3081C40.9998 14.6752 39.1025 16.6161 36.7367 16.6161C34.3944 16.6161 32.4736 14.6989 32.4736 12.3081C32.4736 9.94102 34.3709 8 36.7367 8C39.1025 8 40.9998 9.91735 40.9998 12.3081Z" fill="#1D1D1B"/>
<path d="M35.8464 11.4661V9.92748L36.76 9.61975L37.9077 10.5429V12.3892L39.641 12.8153L38.9383 13.9515L37.7437 13.8568V15.7032L36.76 16.2239L35.8464 15.5848V13.8095L34.4176 13.6201L33.8086 11.8211L35.8464 11.4661Z" fill="#F2EBE9"/>
<path d="M36.7602 10.9457V12.8157L34.1602 12.8393L35.9169 11.8925L36.7602 10.9457Z" fill="#1D1D1B"/>
<path d="M33.809 8.7204L32.4973 10.2827L31.818 12.8391L32.0757 14.9931L28.2342 14.8511L31.0216 14.212L28.7964 14.0936L31.2559 13.5966L29.1009 13.1705L31.0216 12.6024L29.1946 12.2L31.818 11.5135L28.8433 10.9455L31.6072 10.6377L28.8901 9.85662L31.9117 9.6199L28 9.02813L33.809 8.7204Z" fill="#1D1D1B"/>
</svg>
