<svg width="224" height="55" viewBox="0 0 224 55" fill="none" xmlns="http://www.w3.org/2000/svg">
<path d="M3.02721 1.00897L0.0761503 4.16946L-2.90446e-07 9.59561L0.628286 13.1559L5.50229 16.2402L11.214 15.5358L15.0028 11.3662L14.8505 4.26464L11.7662 1.38977L6.81599 -9.94801e-05L3.02721 1.00897Z" fill="#1D1D1B"/>
<path d="M3.25568 11.3282L3.35087 11.4425L4.89304 11.8042L7.08253 10.3572L7.23484 8.49136L3.25568 11.3282Z" fill="#F2EBE9"/>
<path d="M5.23562 7.02539L3.50307 4.56933L3.6173 3.19852L6.35893 7.02539L5.23562 7.02539Z" fill="#F2EBE9"/>
<path d="M9.59574 8.39624L12.7372 6.3971L12.6039 4.53131L9.55767 6.94925L8.68187 7.7108L9.59574 8.39624Z" fill="#F2EBE9"/>
<path d="M8.89117 10.5474L8.35808 11.5565L10.3001 14.0696L11.3282 13.9364L8.89117 10.5474Z" fill="#F2EBE9"/>
<path d="M7.93928 5.93994L10.4905 3.78852L11.6138 3.7124L8.89123 2.24635L9.13874 3.17925L6.64462 2.93179L7.61562 4.70241L6.41615 3.67429L7.93928 5.93994Z" fill="#F2EBE9"/>
<path d="M78.6167 43.5059L61.2588 43.5059L75.4192 38.938L68.5674 38.938L75.4192 35.7405L71.7649 33.9134L75.4192 31.6294L71.7649 30.2591L75.4192 27.0616L68.5674 24.7776L75.4192 22.4937L73.1353 22.4937L68.5674 21.1233L75.4192 17.9258L66.2835 15.1851L75.4192 12.9012L59.8885 10.1605L78.6167 10.1605L78.6167 43.5059Z" fill="black"/>
<path d="M64.6037 22.2691L61.0089 17.7986L55.2298 17.0127L48.3588 17.4056L43.4443 22.0727L43.9449 31.554L48.9048 36.3683L58.4607 37.1543L63.4206 32.4874L64.6037 22.2691Z" fill="#1D1D1B"/>
<path d="M48.4498 21.434L57.7782 34.5016L59.4162 33.0769L51.1345 20.6479L48.4498 21.434Z" fill="white"/>
<path d="M53.9559 19.0264L59.2799 19.2721L61.6006 21.9249V24.676L58.7339 20.5984L53.9559 19.0264Z" fill="white"/>
<path d="M103.74 23.1163L103.74 17.2862L104.712 16.0986L106.799 17.2862L106.799 36.3959L104.82 36.3959L103.74 23.1163Z" fill="black"/>
<path d="M112.449 16.0986L109.354 17.2862L109.354 36.3959L112.449 36.3959L113.241 21.2449L112.449 16.0986Z" fill="black"/>
<path d="M118.171 16.0986L115.796 17.2862L115.796 34.7764L118.171 37.0437L118.747 35.5682L118.747 19.2296L118.171 16.0986Z" fill="black"/>
<path d="M124.217 17.2862L123.389 16.0986L121.122 16.0986L121.122 34.8844L121.626 36.3959L124.217 35.1722L124.217 17.2862Z" fill="black"/>
<path d="M137.964 23.1163L137.964 17.2862L138.936 16.0986L141.023 17.2862L141.023 36.3959L139.044 36.3959L137.964 23.1163Z" fill="black"/>
<path d="M146.674 16.0986L143.579 17.2862L143.579 36.3959L146.674 36.3959L147.465 21.2449L146.674 16.0986Z" fill="black"/>
<path d="M152.395 16.0986L150.02 17.2862L150.02 34.7764L152.395 37.0437L152.971 35.5682L152.971 19.2296L152.395 16.0986Z" fill="black"/>
<path d="M158.442 17.2862L157.614 16.0986L155.347 16.0986L155.347 34.8844L155.851 36.3959L158.442 35.1722L158.442 17.2862Z" fill="black"/>
<path d="M222.207 51.0864L218.553 53.3704L219.923 54.7407L223.121 53.3704L222.207 51.0864Z" fill="#F2EBE9"/>
<path d="M33.8518 44.4196V10.1606L27 44.4196H33.8518Z" fill="black"/>
<path d="M168.147 39.1484H198.295" stroke="black" stroke-width="2.74072"/>
<path d="M3.02721 1.00897L0.0761503 4.16946L-2.90446e-07 9.59561L0.628286 13.1559L5.50229 16.2402L11.214 15.5358L15.0028 11.3662L14.8505 4.26464L11.7662 1.38977L6.81599 -9.94801e-05L3.02721 1.00897Z" fill="#1D1D1B"/>
<path d="M3.25568 11.3282L3.35087 11.4425L4.89304 11.8042L7.08253 10.3572L7.23484 8.49136L3.25568 11.3282Z" fill="#F2EBE9"/>
<path d="M5.23562 7.02539L3.50307 4.56933L3.6173 3.19852L6.35893 7.02539L5.23562 7.02539Z" fill="#F2EBE9"/>
<path d="M9.59574 8.39624L12.7372 6.3971L12.6039 4.53131L9.55767 6.94925L8.68187 7.7108L9.59574 8.39624Z" fill="#F2EBE9"/>
<path d="M8.89117 10.5474L8.35808 11.5565L10.3001 14.0696L11.3282 13.9364L8.89117 10.5474Z" fill="#F2EBE9"/>
<path d="M7.93928 5.93994L10.4905 3.78852L11.6138 3.7124L8.89123 2.24635L9.13874 3.17925L6.64462 2.93179L7.61562 4.70241L6.41615 3.67429L7.93928 5.93994Z" fill="#F2EBE9"/>
<path d="M103.74 23.1163L103.74 17.2862L104.712 16.0986L106.799 17.2862L106.799 36.3959L104.82 36.3959L103.74 23.1163Z" fill="black"/>
<path d="M112.449 16.0986L109.354 17.2862L109.354 36.3959L112.449 36.3959L113.241 21.2449L112.449 16.0986Z" fill="black"/>
<path d="M118.171 16.0986L115.796 17.2862L115.796 34.7764L118.171 37.0437L118.747 35.5682L118.747 19.2296L118.171 16.0986Z" fill="black"/>
<path d="M124.217 17.2862L123.389 16.0986L121.122 16.0986L121.122 34.8844L121.626 36.3959L124.217 35.1722L124.217 17.2862Z" fill="black"/>
<path d="M137.964 23.1163L137.964 17.2862L138.936 16.0986L141.023 17.2862L141.023 36.3959L139.044 36.3959L137.964 23.1163Z" fill="black"/>
<path d="M146.674 16.0986L143.579 17.2862L143.579 36.3959L146.674 36.3959L147.465 21.2449L146.674 16.0986Z" fill="black"/>
<path d="M152.395 16.0986L150.02 17.2862L150.02 34.7764L152.395 37.0437L152.971 35.5682L152.971 19.2296L152.395 16.0986Z" fill="black"/>
<path d="M158.442 17.2862L157.614 16.0986L155.347 16.0986L155.347 34.8844L155.851 36.3959L158.442 35.1722L158.442 17.2862Z" fill="black"/>
<path d="M222.207 51.0859L218.553 53.3699L219.923 54.7402L223.121 53.3699L222.207 51.0859Z" fill="#F2EBE9"/>
<path d="M168.147 39.1479H198.295" stroke="black" stroke-width="2.74072"/>
</svg>
