<svg width="93" height="74" viewBox="0 0 93 74" fill="none" xmlns="http://www.w3.org/2000/svg">
<path d="M53.0982 43H59.7355L64.5752 45.5561C65.6353 46.642 67.7555 48.9842 67.7555 49.6659C67.7555 50.3475 68.5852 53.759 69 55.3795L67.2024 59.5895L61.3026 64L55.9559 63.6492L49.8257 61.0931L47.4749 57.3842L46 50.7685L47.4749 46.358L53.0982 43Z" fill="black"/>
<path d="M58.7879 45H52.6576L50.1848 47.6832C49.7899 49.323 49 52.7118 49 53.1491C49 53.5863 50.4424 56.7101 51.1636 58.2174L55.4909 61H61.1061L66 56.528L65.6909 50.6149C64.7121 49.1905 62.703 46.2919 62.497 46.0932C62.2909 45.8944 59.9384 45.2816 58.7879 45Z" fill="#F2EBE9"/>
<path d="M49.6804 47.1795L54.0771 51.1795L53.6061 53.5897L49 54.5128L49.6804 56L53.6061 55.5385L54.6006 56.9231L51.2507 58.5128L52.4022 60.3077L55.6474 57.9487L56.9559 58.5128V62H59.4683L58.4215 57.5385L60.1488 57.9487L62.1901 61.6923L64.1267 61.0769L61.405 56.9231L62.1901 56.3077L65.2259 58.5128L67.686 57.5385L62.7658 54.2051L63.1322 53.0256L67.686 52.4103L68 50.7692L62.1901 51.1795L61.405 50L65.7493 47.6923L64.1267 46.4615L59.73 48.5128L61.405 44.5128L59.73 44L57.741 48.5128L56.1708 48.2564L55.6474 44H54.0771L54.6006 48.5128L50.1515 45.9487L49.6804 47.1795Z" fill="black"/>
<path d="M57.3171 51L55.7317 51.7658L55 54.6937C55.5285 55.1291 56.6341 56 56.8293 56H57.3171L59.2276 55.4595L59.4715 54.6937L60 53.6126L59.4715 52.036L58.5366 51.3153L57.3171 51Z" fill="#F2EBE9"/>
<path d="M57.3171 51L55.7317 51.7658L55 54.6937C55.5285 55.1291 56.6341 56 56.8293 56H57.3171L59.2276 55.4595L59.4715 54.6937L60 53.6126L59.4715 52.036L58.5366 51.3153L57.3171 51Z" stroke="black"/>
<path d="M57.3171 51L55.7317 51.7658L55 54.6937C55.5285 55.1291 56.6341 56 56.8293 56H57.3171L59.2276 55.4595L59.4715 54.6937L60 53.6126L59.4715 52.036L58.5366 51.3153L57.3171 51Z" stroke="black" stroke-opacity="0.2"/>
<path d="M47.1439 59.7948L45.1253 53.6376L44.7773 52L39 52.3275L43.2459 53.048V54.2271L44.1508 56.6507L41.297 57.0437L44.7773 58.1572L41.9234 58.8777L44.1508 59.4017L41.9234 59.7948L46.0998 61.1048L43.2459 61.5633L46.0998 62.6114H44.7773L47.4919 63.6594L44.1508 64.1179L49.0232 64.5109L44.1508 65.2969H55.5661L53.5476 66.083L63.9188 65.2969L64.1276 66.083L60.3689 67H66.2854L69 65.559V60.3188L64.5452 63.6594L60.3689 64.5109L55.5661 64.1179L49.8585 62.9389L47.1439 59.7948Z" fill="black"/>
<path d="M78 54.692L78.4487 72.0506L79.9744 74H83.2949L85 72.0506V53.9494L83.2949 52H79.4359L78 54.692Z" fill="black"/>
<path d="M83.5666 60.7387L86.1687 65.2524L84.4254 69.6558L82.3052 70.9052L78.1959 69.373L75.9347 66.0466L77.2201 62.0528L79.6453 60.2772L83.5666 60.7387Z" fill="black"/>
<path d="M82.6667 62L85 64.596L84.4667 67.3404L83.4 68.5271C83.1556 68.5271 82.56 68.6013 82.1333 68.898C81.7067 69.1946 80.7556 68.7743 80.3333 68.5271L78.9333 67.8596L78 66.0794V64.9669V63.7059L79.6667 62H82.6667Z" fill="#F2EBE9"/>
<path d="M83 55H78L78.3846 56.5L83 57V55Z" fill="#F2EBE9" stroke="black" stroke-width="1.0283"/>
<path d="M83 58H78L78.3846 58.75L83 59V58Z" fill="#F2EBE9"/>
<path d="M73.0969 46.5096L80.2952 48.4253L82.5551 49L86.4053 46.9885L89 44.0191V38.4636L87.0749 33.0038C85.8473 32.1736 83.2247 30.5134 82.5551 30.5134C81.7181 30.5134 80.2952 29.8429 78.8722 30.0344C77.7339 30.1877 75.4405 30.4176 74.4361 30.5134L71.4229 33.4827L70 40.1877L73.0969 46.5096Z" fill="black"/>
<path d="M75 39.3181L75.5185 44.0778L78.9259 46H81L83 44.627V41.9725L82.3333 38.4943L81 37.1213C79.5679 37.0298 76.6 36.9016 76.1852 37.1213C75.7704 37.341 75.2222 38.6774 75 39.3181Z" fill="#F2EBE9"/>
<path d="M78.271 33L76 34.575H81.215L85 36L83.486 33.975L81.215 33.525L78.271 33Z" fill="#F2EBE9"/>
<path d="M76.7302 27.8934L73 29.5352L77.7222 27L88.754 27.8934L87.0476 28.3763L90.9564 29.5352L87.9008 29.8008L90.9564 31.2012H88.6349L91.9286 32.674H89.369L92.3254 33.7847L90.0437 34.1952L92.3254 35.1127L90.4603 35.4507L92.7222 36.2233L90.619 37.165L93 39H89.9048L88.6349 34.3642L87.4444 31.7565L84.746 29.5352L81.254 28.3763L76.7302 27.8934Z" fill="black"/>
<path d="M62.6461 42.5312C60.594 42.2014 56.3918 41.5549 56 41.6076L59.5679 40.684H67.1235V39.6285H63.6955L66.7037 38.375H63.6955L66.7037 37.7812L63.2058 36.7917H67.1235L63.6955 36H69.2922L68.5226 40.0243L69.8519 42.0694L73 47.4132V54.6701L70.4815 55L69.2922 47.4132L66.7037 45.0382L62.6461 42.5312Z" fill="black"/>
<path d="M39 48.5H0.5V22.5H55.5V0" stroke="black"/>
</svg>
