<svg width="62" height="58" viewBox="0 0 62 58" fill="none" xmlns="http://www.w3.org/2000/svg">
<path d="M53.3974 0.149658H0L53.3974 4.42145L55.5333 11.2563V46.7122L2.56308 57.3917H53.3974L61.0866 52.2655V7.41171L53.3974 0.149658Z" fill="black"/>
<path d="M34.1364 7.45825L46.9264 17.9643L49.6671 26.6433L46.0128 42.174L34.1364 45.8283L21.8032 48.1122L8.0996 39.8901L5.35889 22.989L8.0996 13.3965L19.976 7.45825H34.1364Z" fill="black"/>
<path d="M10.8403 17.0725V26.7448L16.5127 36.417L25.6756 38.5197L37.0203 36.417L40.0746 30.9501L38.7656 19.1752L29.1663 12.0261L18.258 13.2877L10.8403 17.0725Z" fill="#F2EBE9"/>
<path d="M11.2969 32.5815L8.55615 33.4951V35.3222L12.2104 33.9518L11.2969 32.5815Z" fill="#F2EBE9"/>
<path d="M9.92651 27.1L7.64258 27.5568V28.9272H9.92651V27.1Z" fill="#F2EBE9"/>
<path d="M9.92651 22.5322H7.64258L6.729 23.9025H9.92651V22.5322Z" fill="#F2EBE9"/>
<path d="M14.4944 41.2604L16.7783 39.4333L18.1487 40.3468L16.7783 42.174L14.4944 41.2604Z" fill="#F2EBE9"/>
<path d="M18.6054 44.4579L20.4326 41.2604L21.8029 42.174L20.4326 44.4579H18.6054Z" fill="#F2EBE9"/>
<path d="M24.5437 45.3715V42.6308L26.8276 45.3715H24.5437Z" fill="#F2EBE9"/>
<path d="M29.1115 45.3715V42.174H30.9387L31.8522 44.4579L29.1115 45.3715Z" fill="#F2EBE9"/>
<path d="M35.5065 43.5443V41.2604H36.8769V42.6308L35.5065 43.5443Z" fill="#F2EBE9"/>
<path d="M10.3833 18.4211L8.55615 17.9643L7.64258 20.705H10.3833V18.4211Z" fill="#F2EBE9"/>
<path d="M11.2969 16.1372L9.46972 14.31L11.2969 12.4829L14.0376 15.2236L11.2969 16.1372Z" fill="#F2EBE9"/>
<path d="M15.8647 14.31L14.4944 12.4829L15.8647 10.6558L16.7783 13.3965L15.8647 14.31Z" fill="#F2EBE9"/>
<path d="M20.4326 12.0261L19.9758 9.2854H21.3462V11.5693L20.4326 12.0261Z" fill="#F2EBE9"/>
<path d="M28.6547 10.6558V8.37183L30.9387 9.2854L28.6547 10.6558Z" fill="#F2EBE9"/>
<path d="M32.309 11.5693L34.1362 9.2854L35.0497 10.6558L34.1362 12.4829L32.309 11.5693Z" fill="#F2EBE9"/>
<path d="M35.5065 14.31L36.8769 12.4829L38.2472 14.31L37.3337 15.2236L35.5065 14.31Z" fill="#F2EBE9"/>
<path d="M42.8151 16.594H39.6176L40.8167 15.3949L42.8151 16.594Z" fill="#F2EBE9"/>
<path d="M42.3583 19.3347L45.099 18.4211L46.0126 20.705L42.3583 19.3347Z" fill="#F2EBE9"/>
<path d="M47.383 29.8408L44.1855 30.7543L45.099 32.5815L47.383 29.8408Z" fill="#F2EBE9"/>
<path d="M30.0254 14.3101L19.9761 15.6804L29.5686 16.1372L31.8525 17.9643L39.6179 29.8408L37.3339 20.2483L30.0254 14.3101Z" fill="black"/>
<path d="M53.3974 0.149414H0L53.3974 4.42121L55.5333 11.2561V46.712L2.56308 57.3914H53.3974L61.0866 52.2653V7.41146L53.3974 0.149414Z" fill="black"/>
<path d="M34.1364 7.45801L46.9264 17.9641L49.6671 26.643L46.0128 42.1737L34.1364 45.828L21.8032 48.112L8.0996 39.8898L5.35889 22.9887L8.0996 13.3962L19.976 7.45801H34.1364Z" fill="black"/>
<path d="M10.8403 17.0723V26.7445L16.5127 36.4168L25.6756 38.5195L37.0203 36.4168L40.0746 30.9499L38.7656 19.1749L29.1663 12.0259L18.258 13.2875L10.8403 17.0723Z" fill="#F2EBE9"/>
<path d="M11.2969 32.5812L8.55615 33.4948V35.322L12.2104 33.9516L11.2969 32.5812Z" fill="#F2EBE9"/>
<path d="M9.92651 27.0998L7.64258 27.5566V28.9269H9.92651V27.0998Z" fill="#F2EBE9"/>
<path d="M9.92651 22.5319H7.64258L6.729 23.9023H9.92651V22.5319Z" fill="#F2EBE9"/>
<path d="M14.4944 41.2602L16.7783 39.433L18.1487 40.3466L16.7783 42.1737L14.4944 41.2602Z" fill="#F2EBE9"/>
<path d="M18.6054 44.4577L20.4326 41.2602L21.8029 42.1737L20.4326 44.4577H18.6054Z" fill="#F2EBE9"/>
<path d="M24.5437 45.3712V42.6305L26.8276 45.3712H24.5437Z" fill="#F2EBE9"/>
<path d="M29.1115 45.3712V42.1737H30.9387L31.8522 44.4577L29.1115 45.3712Z" fill="#F2EBE9"/>
<path d="M35.5065 43.5441V41.2602H36.8769V42.6305L35.5065 43.5441Z" fill="#F2EBE9"/>
<path d="M10.3833 18.4209L8.55615 17.9641L7.64258 20.7048H10.3833V18.4209Z" fill="#F2EBE9"/>
<path d="M11.2969 16.1369L9.46972 14.3098L11.2969 12.4827L14.0376 15.2234L11.2969 16.1369Z" fill="#F2EBE9"/>
<path d="M15.8647 14.3098L14.4944 12.4827L15.8647 10.6555L16.7783 13.3962L15.8647 14.3098Z" fill="#F2EBE9"/>
<path d="M20.4326 12.0259L19.9758 9.28515H21.3462V11.5691L20.4326 12.0259Z" fill="#F2EBE9"/>
<path d="M28.6547 10.6555V8.37158L30.9387 9.28515L28.6547 10.6555Z" fill="#F2EBE9"/>
<path d="M32.309 11.5691L34.1362 9.28515L35.0497 10.6555L34.1362 12.4827L32.309 11.5691Z" fill="#F2EBE9"/>
<path d="M35.5065 14.3098L36.8769 12.4827L38.2472 14.3098L37.3337 15.2234L35.5065 14.3098Z" fill="#F2EBE9"/>
<path d="M42.8151 16.5937H39.6176L40.8167 15.3947L42.8151 16.5937Z" fill="#F2EBE9"/>
<path d="M42.3583 19.3344L45.099 18.4209L46.0126 20.7048L42.3583 19.3344Z" fill="#F2EBE9"/>
<path d="M47.383 29.8405L44.1855 30.7541L45.099 32.5812L47.383 29.8405Z" fill="#F2EBE9"/>
<path d="M30.0254 14.3098L19.9761 15.6802L29.5686 16.137L31.8525 17.9641L39.6179 29.8405L37.3339 20.248L30.0254 14.3098Z" fill="black"/>
</svg>
