<svg width="117" height="1129" viewBox="0 0 117 1129" fill="none" xmlns="http://www.w3.org/2000/svg">
<path d="M36.7552 1093.73C36.7552 1099.1 32.3994 1103.46 27.0254 1103.46C21.6513 1103.46 17.2955 1099.1 17.2955 1093.73C17.2955 1088.36 21.6513 1084 27.0254 1084C32.3994 1084 36.7552 1088.36 36.7552 1093.73Z" fill="black"/>
<path d="M24.9701 1090.71V1087.19L27.0254 1086.53L29.6464 1088.62V1092.81L33.644 1093.73L32.0035 1096.29L29.307 1096.09V1100.31L27.0254 1101.48L24.9701 1100.05V1095.99L21.6891 1095.58L20.2937 1091.5L24.9701 1090.71Z" fill="#F2EBE9"/>
<path d="M27.0252 1089.52V1093.73L21.0667 1093.81L25.0831 1091.67L27.0252 1089.52Z" fill="black"/>
<path d="M29.4202 1094.54L26.9689 1095.99L28.1945 1098.35L30.8344 1095.39L29.4202 1094.54Z" fill="black"/>
<path d="M20.2937 1084.47L17.2955 1088.02L15.7116 1093.81L16.2961 1098.69L7.5091 1098.35L13.9014 1096.92L8.81019 1096.67L14.4294 1095.5L9.50789 1094.52L13.9014 1093.28L9.73416 1092.33L15.7116 1090.83L8.92332 1089.52L15.2402 1088.83L9.03648 1087.07L15.9567 1086.53L7 1085.21L20.2937 1084.47Z" fill="black"/>
<path d="M34.0272 335.009L31.0762 338.169L31 343.596L31.6283 347.156L36.5023 350.24L42.214 349.536L46.0028 345.366L45.8505 338.265L42.7662 335.39L37.816 334L34.0272 335.009Z" fill="#1D1D1B"/>
<path d="M34.2557 345.328L34.3509 345.442L35.893 345.804L38.0825 344.357L38.2348 342.491L34.2557 345.328Z" fill="#F2EBE9"/>
<path d="M36.2356 341.025L34.5031 338.569L34.6173 337.199L37.3589 341.025L36.2356 341.025Z" fill="#F2EBE9"/>
<path d="M40.5958 342.396L43.7372 340.397L43.6039 338.531L40.5577 340.949L39.6819 341.711L40.5958 342.396Z" fill="#F2EBE9"/>
<path d="M39.8912 344.548L39.3581 345.557L41.3001 348.07L42.3282 347.936L39.8912 344.548Z" fill="#F2EBE9"/>
<path d="M38.9393 339.94L41.4905 337.789L42.6138 337.713L39.8912 336.246L40.1387 337.179L37.6446 336.932L38.6156 338.703L37.4161 337.674L38.9393 339.94Z" fill="#F2EBE9"/>
<path d="M25 1076V705" stroke="black"/>
<path d="M8 699.216C8 699.216 23.5465 698.73 28.201 699.216C32.8555 699.703 38 705 38 705L9.6206 705L8 699.216Z" fill="#1D1D1B"/>
<path d="M10.3598 691.615C10.3598 691.615 7.90752 692.173 7.83028 688.923C7.75305 685.673 7 657.231 7 657.231L8.67988 655L42.7602 655L45 658.462L45 691.615L40.7713 692L10.3598 691.615Z" fill="black"/>
<path d="M11 687.728L11 657.484L15.2027 657.484L16.4558 672.596L17.6897 657.484L19.6754 673.232L20.6586 657.484L22.3937 672.596L23.6468 657.484L26.1144 672.596L26.1144 657.484L28.852 671.613L28.852 657.484L30.9919 672.596L32.0715 657.484L34.3078 673.232L35.7923 657.484L37.2767 672.596L38.5106 656L39.5131 673.232L40.9975 657.735L42 660.954L42 671.864L42 687.728L38.7612 689L13.7183 689L11 687.728Z" fill="#F2EBE9"/>
<path d="M12.1904 677.66L12.1904 682.382L25.5368 682.382L25.5368 677.66L12.1904 677.66Z" fill="black"/>
<path d="M29.1924 679.164L30.7536 683.715L34.2949 685.428L38.4644 683.715L39.9304 677.66L37.6267 673.034L32.6385 673.034L30.1253 674.919L29.1924 679.164Z" fill="black"/>
<path d="M32.2197 679.164L32.2197 681.506L34.5615 681.506L37.2269 680.326L37.2269 677.565L35.5515 675.128L33.2478 675.966L32.2197 679.164Z" fill="#F2EBE9"/>
<path d="M25 645V573H89" stroke="black"/>
<path d="M89.8372 558.364L88.5854 591.34L87.899 560.792L80.2516 558L89.8372 558.364Z" fill="black"/>
<path d="M92.5 536.372L90.2778 536L88.1667 539.837L84.2222 537.289L82 538.548V539.952L87.3055 543.13L84.2222 547.225L86.3333 549H87.4444L89.9167 543.789L93 547.597L95.4722 547.482L97 545.678L90.9722 541.612L93.25 537.403L92.5 536.372Z" fill="black"/>
<path d="M29.5 1116.37L27.2778 1116L25.1667 1119.84L21.2222 1117.29L19 1118.55V1119.95L24.3055 1123.13L21.2222 1127.22L23.3333 1129H24.4444L26.9167 1123.79L30 1127.6L32.4722 1127.48L34 1125.68L27.9722 1121.61L30.25 1117.4L29.5 1116.37Z" fill="black"/>
<path d="M18 435H4V453H18V435Z" fill="black"/>
<path d="M7 443.547C7 443.547 26.4435 443.057 29.5875 459.204C32.7316 475.378 54.7124 472.85 61.7727 463.961C68.8331 455.072 64.9167 419 64.9167 419" stroke="black" stroke-width="2" stroke-miterlimit="10"/>
<path d="M69.3631 402.214L55.5121 402L50.4116 409.171L50.2666 426.267L54.6177 428H74.5844L79.7333 422.658L79.419 406.25L69.3631 402.214Z" fill="black"/>
<path d="M57.582 405L53 409.813L53.447 422.153L55.5984 423.776L74.234 424L77 418.739L75.603 408.666L57.582 405Z" fill="#F2EBE9"/>
<path d="M57 409.923L60 409L61 421H57V409.923Z" fill="black"/>
<path d="M47 398H59L50 401L47 406.5V398Z" fill="black"/>
<path d="M21 360V327L23.5 357.5L34 360H21Z" fill="black"/>
<path d="M26 340.149V167.149H116V102.149V6.14941H77" stroke="black"/>
<path d="M0 431V442L2.6 433.2L13 431H0Z" fill="black"/>
<circle cx="78.5" cy="7.5" r="7.5" fill="#66F777"/>
<path d="M83.0493 8.02465C83.0493 10.7707 80.8291 13.0493 78.0247 13.0493C75.2786 13.0493 73 10.8291 73 8.02465C73 5.27862 75.2202 3 78.0247 3C80.8291 3.05843 83.0493 5.27862 83.0493 8.02465Z" fill="black"/>
</svg>
