<svg width="25" height="17" viewBox="0 0 25 17" fill="none" xmlns="http://www.w3.org/2000/svg">
<path d="M24.5142 16.9712L17.5232 16.9712L23.2264 14.6463L20.4668 14.6463L23.2264 13.0189L21.7546 12.089L23.2264 10.9266L21.7546 10.2291L23.2264 8.60172L20.4668 7.43929L23.2264 6.27687L22.3065 6.27687L20.4668 5.57941L23.2264 3.95201L19.5469 2.5571L23.2264 1.39468L16.9713 -0.000235852L24.5142 -0.000236511L24.5142 16.9712Z" fill="black"/>
<path d="M18.6423 5.47992L16.8601 3.26363L13.9951 2.87402L10.5887 3.06883L8.15234 5.38255L8.40053 10.083L10.8594 12.4697L15.5968 12.8594L18.0557 10.5457L18.6423 5.47992Z" fill="#1D1D1B"/>
<path d="M10.6343 5.06583L15.2589 11.5442L16.071 10.8379L11.9652 4.67615L10.6343 5.06583Z" fill="white"/>
<path d="M13.3633 3.87231L16.0027 3.99413L17.1532 5.30931V6.67316L15.732 4.65168L13.3633 3.87231Z" fill="white"/>
<path d="M3.77143 16.9714V0L0 16.9714H3.77143Z" fill="black"/>
</svg>
