<svg width="168" height="15" viewBox="0 0 168 15" fill="none" xmlns="http://www.w3.org/2000/svg">
<path d="M155.493 1.76316L161.224 0L148.441 0.440789L154.171 1.32237L148 2.20395L153.73 3.52632L148 3.96711L153.289 5.28947L148 6.61184L153.289 7.49342L148 8.81579L153.289 9.69737L148.441 10.5789L154.171 11.9013L148.882 12.3421L154.171 13.6645L149.322 14.9868H162.105V12.3421H156.375L155.493 11.4605L154.612 7.05263L155.493 1.76316Z" fill="black"/>
<path d="M0 7H132" stroke="black"/>
<path d="M159.942 2.15283L162.396 2.7506L163.072 5.31656L166.896 3.8465L167.162 6.31283L164.266 7.52873L166.279 9.94015L164.013 10.3488L162.409 8.03704L158.695 9.05368L158.727 7.1404L161.513 6.37792L159.611 3.51308L159.942 2.15283Z" fill="black"/>
</svg>
