<svg width="178" height="329" viewBox="0 0 178 329" fill="none" xmlns="http://www.w3.org/2000/svg">
<path d="M51.5413 13H46.9174L46 12.3588L46.9174 11H62V12.2977L51.5413 13Z" fill="black"/>
<path d="M46 7.40963L46.9174 9H62V7.40963L50.055 7L46 7.40963Z" fill="black"/>
<path d="M46 4.20313L46.9434 5H61.132L63 4.20313L61.7924 4H48.5283L46 4.20313Z" fill="black"/>
<path d="M46.9174 0L46 0.54137V2H60.8257L62 1.68418L61.0459 0H46.9174Z" fill="black"/>
<path d="M0.711426 78.8343V88.958L3.52346 90.9223L19.4849 91.3756V89.381V78.8343L15.96 77.0514L2.49377 76.6585L0.711426 78.8343Z" fill="#1D1D1B"/>
<path d="M5.30666 78.8345H15.2875L16.6341 81.4032V89.1395H7.99988L10.9704 88.0818V86.6917H13.9409L14.337 84.3647L13.9409 82.4608L12.5943 80.5872L7.24735 80.4663L5.30666 82.0075L3.56396 81.4032L5.30666 78.8345Z" fill="#F2EBE9"/>
<path d="M164.598 319.348L165.707 318.29L169.151 317.536L172.67 318.687L173.271 321.856L171.608 322.944L164.598 319.348Z" fill="#1D1D1B"/>
<path d="M163.563 320.221L162.296 323.651L163.563 325.222L167.613 325.975L170.126 324.44L163.563 320.221Z" fill="#1D1D1B"/>
<path d="M158.889 309.871L161.226 312.077L165.305 312.832L164.117 316.247H160.553L157.859 319.057L157.226 321.384L158.493 324.134L159.563 325.222H145.383L158.889 309.871Z" fill="#1D1D1B"/>
<path d="M145.384 327.187L143.483 329L177.069 328.516L161.781 327.58L145.384 327.187Z" fill="#1D1D1B"/>
<path d="M160.678 296.25L164.045 294.528H169.115L173.075 294.981L174.541 297.882L176.323 301.78L172.917 304.833L168.52 306.495L163.015 305.86L159.569 302.959V299.302L160.678 296.25Z" fill="#1D1D1B"/>
<path d="M160.678 298.365L162.342 296.734L166.144 295.495L170.342 296.038L173.075 298.033L174.541 301.539L172.362 303.654L168.283 305.256L164.045 304.047L160.678 301.78V298.365Z" fill="#F2EBE9"/>
<path d="M167.847 299.665L170.857 297.912L170.54 297.489L168.481 297.096L164.797 297.368L164.045 298.245L167.847 299.665Z" fill="#1D1D1B"/>
<path d="M166.738 300.904C166.5 300.904 163.965 300.118 162.737 299.756L162.302 300.239L163.53 301.901L166.5 303.624L167.609 303.382C167.332 302.203 166.896 300.904 166.738 300.904Z" fill="#1D1D1B"/>
<path d="M171.649 298.97L168.282 300.995L168.995 303.08L172.362 301.629L171.966 299.393L171.649 298.97Z" fill="#1D1D1B"/>
<path d="M129.51 296.25L132.877 294.528H137.947L141.907 294.981L143.373 297.882L145.155 301.78L141.749 304.833L137.352 306.495L131.847 305.86L128.401 302.959V299.302L129.51 296.25Z" fill="#1D1D1B"/>
<path d="M129.51 298.365L131.174 296.734L134.976 295.495L139.174 296.038L141.907 298.033L143.373 301.539L141.194 303.654L137.115 305.256L132.877 304.047L129.51 301.78V298.365Z" fill="#F2EBE9"/>
<path d="M136.679 299.665L139.689 297.912L139.372 297.489L137.312 297.096L133.629 297.368L132.876 298.245L136.679 299.665Z" fill="#1D1D1B"/>
<path d="M135.57 300.904C135.332 300.904 132.797 300.118 131.569 299.756L131.134 300.239L132.362 301.901L135.332 303.624L136.441 303.382C136.164 302.203 135.728 300.904 135.57 300.904Z" fill="#1D1D1B"/>
<path d="M140.481 298.97L137.115 300.995L137.828 303.08L141.194 301.629L140.798 299.393L140.481 298.97Z" fill="#1D1D1B"/>
<path d="M121.363 301.432H61.037V84.3299H28.8633" stroke="black" stroke-width="1.00543"/>
<path d="M148.008 301.048L145.494 296.829H153.035V297.596V301.432L148.51 302.966L153.035 303.733L148.008 304.884L152.532 306.802H139.461L145.494 304.884L148.008 301.048Z" fill="black"/>
<path d="M69.4857 173.197L69.2217 181.812L67.4059 183.449L54.4315 183.399L52.1206 181.182L52.4508 172.265L54.1344 170.955L67.9011 171.308L69.4857 173.197Z" fill="#1D1D1B"/>
<path d="M54.5635 179.419L54.9926 173.877L56.1151 172.517L67.0426 172.441L59.7796 174.91L54.5635 179.419Z" fill="#F2EBE9"/>
<path d="M64.1382 162.844L62.7186 161.912L59.3512 161.811L57.9316 162.743L58.0637 170.401L63.9731 170.577L64.1382 162.844Z" fill="#1D1D1B"/>
<path d="M57.9316 207.278L59.3512 207.857L62.7186 207.908L64.1382 207.354L63.9731 184.179L58.0637 184.079L57.9316 207.278Z" fill="#1D1D1B"/>
<path d="M56.4456 166.673V169.797H51.9888L56.4456 166.673Z" fill="#1D1D1B"/>
<path d="M4.73324 87.3985L9.76039 83.1793L7.74953 82.0285L3.2251 85.0971L4.73324 87.3985Z" fill="#F2EBE9"/>
<path d="M51.5274 48.2741H46.8785L45.9561 47.5245L46.8785 45.9727H62.0429V47.4547L51.5274 48.2741Z" fill="black"/>
<path d="M45.9561 42.6083L46.8785 44.4383H62.0429V42.6083L50.0331 42.1369L45.9561 42.6083Z" fill="black"/>
<path d="M45.9561 38.7688L46.9046 40.6027H61.1703L63.0484 38.7688L61.8342 38.3013H48.4981L45.9561 38.7688Z" fill="black"/>
<path d="M46.8785 35.2325L45.9561 35.6479V36.7668H60.8622L62.0429 36.5246L61.0836 35.2325H46.8785Z" fill="black"/>
<ellipse cx="61.5402" cy="238.142" rx="7.54072" ry="5.75359" fill="#66F777"/>
<path d="M66.1141 238.545C66.1141 240.652 63.8819 242.4 61.0622 242.4C58.3013 242.4 56.0103 240.696 56.0103 238.545C56.0103 236.438 58.2425 234.69 61.0622 234.69C63.8819 234.735 66.1141 236.438 66.1141 238.545Z" fill="black"/>
</svg>
