<svg width="430" height="221" viewBox="0 0 430 221" fill="none" xmlns="http://www.w3.org/2000/svg">
<path d="M81.0215 1.36484H103.852L128.667 45.5362L154.847 1.36484H177.057V94.7947H159.562V24.195L135.615 66.257H121.843L98.2682 24.3191V94.7947H81.0215V1.36484Z" fill="#1D1D1B"/>
<path d="M249.641 68.4904H216.265L206.959 94.7947H188.968L223.709 1.36484H242.941L277.683 94.7947H258.823L249.641 68.4904ZM244.554 54.3457L232.891 20.8449L221.228 54.3457H244.554Z" fill="#1D1D1B"/>
<path d="M318.505 58.3161H307.214V94.7947H289.471V1.36484H322.103C342.079 1.36484 353.122 13.0281 353.122 28.7858C353.122 40.2009 347.042 50.2511 335.627 55.2142L361.435 94.7947H340.466L318.505 58.3161ZM307.214 44.2954H319.373C327.686 44.2954 334.635 39.8287 334.635 29.9025C334.635 20.2245 327.935 16.13 319.497 16.13H307.214V44.2954Z" fill="#1D1D1B"/>
<path d="M429.306 16.8744H404.863V94.7947H386.996V16.8744H362.305V1.36484H429.306V16.8744Z" fill="#1D1D1B"/>
<path d="M38.712 40.2009C27.5451 36.1064 20.2245 33.2526 20.2245 25.808C20.2245 19.4801 25.9321 15.6337 34.4934 15.6337C41.5657 15.6337 50.3752 18.1152 56.579 21.7134L61.5421 6.452C55.2142 2.85377 44.5436 0 34.4934 0C15.3855 0 2.23338 10.2984 2.23338 27.5451C2.23338 43.0547 13.1521 49.3826 28.1654 55.0901C40.6972 59.681 46.4047 61.9144 46.4047 69.1108C46.4047 76.3073 41.4417 80.2777 32.0118 80.2777C22.0857 80.2777 11.9114 75.9351 4.59084 70.3516L0 67.1256V174.452C0 187.976 6.70015 194.056 17.9911 194.056C23.6987 194.056 27.9173 192.567 30.647 191.327L28.7858 178.298C27.1728 178.795 24.9394 179.663 22.582 179.663C18.6115 179.663 16.3781 177.43 16.3781 171.846V94.1743C21.0931 95.4151 26.0561 96.0355 31.0192 96.0355C51.1197 96.0355 64.2718 85.489 64.2718 67.0015C64.2718 50.2511 53.353 45.5362 38.712 40.2009Z" fill="#1D1D1B"/>
<path d="M34.6182 159.315C34.6182 139.338 49.3833 124.697 70.8486 124.697C92.1898 124.697 106.955 139.338 106.955 159.315C106.955 179.291 92.1898 193.932 70.8486 193.932C49.3833 193.932 34.6182 179.291 34.6182 159.315ZM89.8324 159.191C89.8324 147.776 82.0155 139.835 70.7245 139.835C59.3095 139.835 51.4926 147.776 51.4926 159.315C51.4926 170.978 59.4335 178.795 70.7245 178.795C82.2637 178.795 89.8324 170.73 89.8324 159.191Z" fill="#1D1D1B"/>
<path d="M123.457 172.095V139.835H113.158V126.062H123.457V107.327L139.959 105.217V126.062H157.95V139.835H139.959V169.861C139.959 176.189 142.813 179.043 147.9 179.043C152.242 179.043 156.585 177.058 159.315 175.445L161.92 188.721C157.826 191.451 151.374 193.808 143.929 193.808C131.025 193.932 123.457 186.86 123.457 172.095Z" fill="#1D1D1B"/>
<path d="M176.562 172.095V139.835H166.264V126.062H176.562V107.327L193.064 105.217V126.062H210.931V139.835H192.94V169.861C192.94 176.189 195.794 179.043 200.881 179.043C205.224 179.043 209.567 177.058 212.296 175.445L214.902 188.721C210.807 191.451 204.355 193.808 196.911 193.808C184.131 193.932 176.562 186.86 176.562 172.095Z" fill="#1D1D1B"/>
<path d="M284.383 162.913H235.62C236.613 174.08 244.306 180.16 255.845 180.16C264.53 180.16 272.223 177.182 277.31 173.211L281.405 186.115C275.325 190.582 266.019 194.056 254.232 194.056C233.015 194.056 218.994 179.415 218.994 159.563C218.994 139.09 233.511 124.821 252.495 124.821C271.727 124.821 284.507 139.09 284.507 160.431V162.913H284.383ZM267.632 151.746C266.391 143.309 260.436 137.477 252.371 137.477C244.182 137.477 237.978 143.185 236.117 151.746H267.632Z" fill="#1D1D1B"/>
<path d="M335.752 126.186L333.146 141.944C331.161 141.324 328.556 140.579 326.198 140.579C315.776 140.579 310.937 147.776 310.937 161.052V192.443H294.683V125.938H310.937V136.609C314.783 127.799 320.615 124.449 327.191 124.449C330.417 124.573 333.271 125.318 335.752 126.186Z" fill="#1D1D1B"/>
<path d="M406.105 126.062L377.071 200.88C372.108 213.909 364.539 220.485 351.511 220.485C347.913 220.485 344.19 220.112 340.468 218.623L342.453 204.603C344.314 205.223 346.3 205.595 348.533 205.595C354.613 205.595 359.079 203.362 362.181 196.041L364.663 189.962L337.738 126.062H355.729L373.224 171.35L388.982 126.062H406.105Z" fill="#1D1D1B"/>
</svg>
