<svg width="152" height="25" viewBox="0 0 152 25" fill="none" xmlns="http://www.w3.org/2000/svg">
<rect width="151.608" height="24.6242" fill="white"/>
<path d="M80.628 9.32873C80.2904 9.12084 79.8519 9.12084 79.4807 9.32873L76.8488 10.9217L75.0604 11.9602L72.4286 13.5536C72.0914 13.7614 71.6525 13.7614 71.2813 13.5536L69.1893 12.3068C68.8518 12.0993 68.6158 11.7184 68.6158 11.3026V8.84345C68.6158 8.42798 68.8181 8.04679 69.1893 7.8389L71.2464 6.62678C71.5839 6.4192 72.0225 6.4192 72.3937 6.62678L74.4508 7.8389C74.7883 8.04679 75.0246 8.42798 75.0246 8.84345V10.4364L76.813 9.36302V7.77002C76.8152 7.35455 76.6142 6.97337 76.2401 6.76579L72.4286 4.47992C72.0914 4.27203 71.6525 4.27203 71.2813 4.47992L67.4009 6.76579C67.0297 6.97337 66.8274 7.35455 66.8274 7.77002V12.3763C66.8274 12.7918 67.0297 13.173 67.4009 13.3806L71.2813 15.6664C71.6189 15.8743 72.0574 15.8743 72.4286 15.6664L75.0604 14.108L76.8488 13.0343L79.4807 11.4759C79.8182 11.268 80.2568 11.268 80.628 11.4759L82.6851 12.688C83.0223 12.8959 83.2586 13.2768 83.2586 13.6923V16.1514C83.2586 16.5669 83.056 16.9478 82.6851 17.1556L80.628 18.4024C80.2904 18.6103 79.8519 18.6103 79.4807 18.4024L77.4236 17.1902C77.0863 16.9824 76.8501 16.6015 76.8501 16.186V14.5927L75.0617 15.6664V17.2588C75.0617 17.6746 75.2643 18.0555 75.6352 18.2634L79.5156 20.5489C79.8531 20.7568 80.2917 20.7568 80.6629 20.5489L84.5433 18.2634C84.8805 18.0555 85.1168 17.6746 85.1168 17.2588V12.6534C85.1168 12.2376 84.9145 11.8568 84.5433 11.6489L80.628 9.32873Z" fill="#7950DD"/>
<path d="M92.2401 19.2324V15.4084C92.6518 15.9304 93.3986 16.2225 94.266 16.2225C96.4758 16.2225 97.9691 14.6407 97.9691 12.2295C97.9691 9.81839 96.5977 8.2363 94.4489 8.2363C93.4581 8.2363 92.696 8.60502 92.2388 9.20407V8.3591H90.1194V19.2324H92.2401ZM94.0082 14.3795C92.865 14.3795 92.1182 13.5193 92.1182 12.2289C92.1182 10.9233 92.8662 10.0634 94.0082 10.0634C95.1206 10.0634 95.8827 10.9233 95.8827 12.2289C95.8827 13.5187 95.1206 14.3795 94.0082 14.3795Z" fill="black"/>
<path d="M102.781 16.2225C105.143 16.2225 106.835 14.5332 106.835 12.2295C106.835 9.92592 105.143 8.2363 102.781 8.2363C100.419 8.2363 98.7275 9.92592 98.7275 12.2295C98.7275 14.5332 100.419 16.2225 102.781 16.2225ZM102.781 14.3795C101.638 14.3795 100.861 13.504 100.861 12.2289C100.861 10.9386 101.638 10.0634 102.781 10.0634C103.924 10.0634 104.702 10.9386 104.702 12.2289C104.702 13.504 103.924 14.3795 102.781 14.3795Z" fill="black"/>
<path d="M110.234 16.0994V4.99606H108.116V16.0994H110.234Z" fill="black"/>
<path d="M116.601 8.3591L115.001 13.3503L113.386 8.3591H111.222L114.011 16.038L112.883 19.2324H114.91L115.992 16.0688L118.781 8.3591H116.601Z" fill="black"/>
<path d="M124.731 9.12708C124.304 8.58974 123.542 8.2363 122.611 8.2363C120.371 8.2363 119.014 9.81839 119.014 12.2295C119.014 14.6407 120.371 16.2225 122.641 16.2225C123.541 16.2225 124.348 15.8846 124.745 15.3161V16.33C124.745 17.0519 124.272 17.5583 123.632 17.5583H120.097V19.2324H123.968C125.706 19.2324 126.864 18.1727 126.864 16.5603V8.3591H124.731V9.12708ZM122.978 14.3795C121.85 14.3795 121.103 13.5349 121.103 12.2289C121.103 10.923 121.851 10.0634 122.978 10.0634C124.121 10.0634 124.868 10.9233 124.868 12.2289C124.868 13.5345 124.121 14.3795 122.978 14.3795Z" fill="black"/>
<path d="M132.204 16.2225C134.567 16.2225 136.258 14.5332 136.258 12.2295C136.258 9.92592 134.567 8.2363 132.204 8.2363C129.842 8.2363 128.15 9.92592 128.15 12.2295C128.15 14.5332 129.842 16.2225 132.204 16.2225ZM132.204 14.3795C131.061 14.3795 130.284 13.504 130.284 12.2289C130.284 10.9386 131.061 10.0634 132.204 10.0634C133.347 10.0634 134.124 10.9386 134.124 12.2289C134.124 13.504 133.347 14.3795 132.204 14.3795Z" fill="black"/>
<path d="M139.551 16.0994V11.8605C139.551 10.8631 140.205 10.1404 141.136 10.1404C142.02 10.1404 142.614 10.8161 142.614 11.753V16.0994H144.747V11.2774C144.747 9.4958 143.62 8.2363 141.882 8.2363C140.831 8.2363 139.977 8.68169 139.551 9.4344V8.3591H137.417V16.0994H139.551Z" fill="black"/>
<path d="M6.79152 13.0772H7.36753L7.52463 13.7056H7.56652C7.7271 13.4612 7.93307 13.2762 8.18442 13.1505C8.44275 13.0179 8.73599 12.9516 9.06414 12.9516C9.76234 12.9516 10.2825 13.1575 10.6246 13.5695C10.9667 13.9814 11.1378 14.6552 11.1378 15.5907C11.1378 16.0306 11.0784 16.4286 10.9597 16.7846C10.848 17.1337 10.6874 17.4305 10.478 17.6748C10.2685 17.9192 10.0137 18.1077 9.71346 18.2404C9.42022 18.373 9.09207 18.4394 8.72901 18.4394C8.47068 18.4394 8.26471 18.4219 8.11111 18.387C7.96449 18.3591 7.8039 18.3067 7.62935 18.2299V20.4083H6.79152V13.0772ZM8.90705 13.6847C8.55097 13.6847 8.2682 13.7789 8.05874 13.9674C7.85627 14.149 7.71314 14.4282 7.62935 14.8053V17.4025C7.75503 17.5003 7.89816 17.5771 8.05874 17.633C8.21933 17.6818 8.43228 17.7063 8.69759 17.7063C9.17935 17.7063 9.55986 17.5282 9.83914 17.1721C10.1254 16.8091 10.2685 16.2785 10.2685 15.5803C10.2685 15.294 10.2441 15.0357 10.1952 14.8053C10.1463 14.5679 10.0661 14.3689 9.95434 14.2083C9.84961 14.0407 9.70997 13.9116 9.53542 13.8208C9.36786 13.73 9.1584 13.6847 8.90705 13.6847ZM12.1643 15.6955C12.1643 14.8088 12.3598 14.1315 12.7508 13.6637C13.1487 13.1889 13.7178 12.9516 14.4579 12.9516C14.8488 12.9516 15.1875 13.0179 15.4737 13.1505C15.767 13.2762 16.0078 13.4612 16.1964 13.7056C16.3849 13.943 16.5245 14.2327 16.6153 14.5749C16.706 14.91 16.7514 15.2835 16.7514 15.6955C16.7514 16.5822 16.5524 17.2629 16.1545 17.7377C15.7635 18.2055 15.1979 18.4394 14.4579 18.4394C14.0669 18.4394 13.7248 18.3765 13.4315 18.2509C13.1453 18.1182 12.9079 17.9332 12.7194 17.6958C12.5308 17.4514 12.3912 17.1617 12.3004 16.8265C12.2097 16.4844 12.1643 16.1074 12.1643 15.6955ZM13.0335 15.6955C13.0335 15.9608 13.058 16.2156 13.1069 16.46C13.1627 16.7044 13.2465 16.9173 13.3582 17.0988C13.4699 17.2804 13.6165 17.427 13.7981 17.5387C13.9796 17.6504 14.1995 17.7063 14.4579 17.7063C15.4074 17.7132 15.8822 17.043 15.8822 15.6955C15.8822 15.4232 15.8542 15.1648 15.7984 14.9205C15.7495 14.6761 15.6692 14.4632 15.5575 14.2816C15.4458 14.1001 15.2992 13.957 15.1176 13.8522C14.9361 13.7405 14.7162 13.6847 14.4579 13.6847C13.5083 13.6777 13.0335 14.3479 13.0335 15.6955ZM21.3531 13.0772L22.5575 16.1353L22.8193 17.1407H22.8403L23.0393 16.1144L23.9713 13.0772H24.7673L23.0078 18.4289H22.5994L21.2274 14.9728L21.0285 14.1141H20.997L20.7876 14.9833L19.468 18.4289H19.0596L17.2373 13.0772H18.1484L19.1852 16.1249L19.3633 17.1407H19.3737L19.6251 16.1039L20.7457 13.0772H21.3531ZM29.3713 17.8948C29.1618 18.0623 28.8965 18.195 28.5753 18.2927C28.2612 18.3905 27.926 18.4394 27.5699 18.4394C27.172 18.4394 26.8264 18.3765 26.5331 18.2509C26.2399 18.1182 25.999 17.9332 25.8105 17.6958C25.622 17.4514 25.4823 17.1617 25.3916 16.8265C25.3008 16.4914 25.2554 16.1144 25.2554 15.6955C25.2554 14.8018 25.4544 14.121 25.8524 13.6532C26.2504 13.1855 26.8194 12.9516 27.5595 12.9516C27.7969 12.9516 28.0342 12.9795 28.2716 13.0353C28.509 13.0842 28.722 13.182 28.9105 13.3286C29.099 13.4752 29.2526 13.6847 29.3713 13.957C29.49 14.2223 29.5493 14.5749 29.5493 15.0147C29.5493 15.2451 29.5284 15.5 29.4865 15.7792H26.1247C26.1247 16.0865 26.1561 16.3587 26.2189 16.5961C26.2818 16.8335 26.3795 17.036 26.5122 17.2036C26.6448 17.3641 26.8159 17.4898 27.0253 17.5806C27.2418 17.6644 27.5036 17.7063 27.8108 17.7063C28.0482 17.7063 28.2856 17.6644 28.523 17.5806C28.7604 17.4968 28.9384 17.3991 29.0571 17.2873L29.3713 17.8948ZM27.5699 13.6847C27.158 13.6847 26.8264 13.7929 26.575 14.0093C26.3306 14.2258 26.184 14.5958 26.1351 15.1195H28.7324C28.7324 14.5888 28.6312 14.2188 28.4287 14.0093C28.2262 13.7929 27.94 13.6847 27.5699 13.6847ZM33.3385 13.8836C33.1291 13.8138 32.9301 13.7789 32.7416 13.7789C32.4414 13.7789 32.204 13.8627 32.0294 14.0303C31.8549 14.1909 31.7467 14.3968 31.7048 14.6482V18.3137H30.8669V13.0772H31.4534L31.6105 13.7161H31.6524C31.7851 13.4787 31.9422 13.2972 32.1237 13.1715C32.3122 13.0388 32.5496 12.9725 32.8358 12.9725C33.0383 12.9725 33.2652 13.0074 33.5166 13.0772L33.3385 13.8836ZM38.2487 17.8948C38.0392 18.0623 37.7739 18.195 37.4528 18.2927C37.1386 18.3905 36.8034 18.4394 36.4474 18.4394C36.0494 18.4394 35.7038 18.3765 35.4105 18.2509C35.1173 18.1182 34.8764 17.9332 34.6879 17.6958C34.4994 17.4514 34.3598 17.1617 34.269 16.8265C34.1782 16.4914 34.1329 16.1144 34.1329 15.6955C34.1329 14.8018 34.3318 14.121 34.7298 13.6532C35.1278 13.1855 35.6968 12.9516 36.4369 12.9516C36.6743 12.9516 36.9117 12.9795 37.1491 13.0353C37.3864 13.0842 37.5994 13.182 37.7879 13.3286C37.9764 13.4752 38.13 13.6847 38.2487 13.957C38.3674 14.2223 38.4267 14.5749 38.4267 15.0147C38.4267 15.2451 38.4058 15.5 38.3639 15.7792H35.0021C35.0021 16.0865 35.0335 16.3587 35.0964 16.5961C35.1592 16.8335 35.2569 17.036 35.3896 17.2036C35.5223 17.3641 35.6933 17.4898 35.9028 17.5806C36.1192 17.6644 36.381 17.7063 36.6882 17.7063C36.9256 17.7063 37.163 17.6644 37.4004 17.5806C37.6378 17.4968 37.8158 17.3991 37.9345 17.2873L38.2487 17.8948ZM36.4474 13.6847C36.0354 13.6847 35.7038 13.7929 35.4524 14.0093C35.2081 14.2258 35.0615 14.5958 35.0126 15.1195H37.6099C37.6099 14.5888 37.5086 14.2188 37.3061 14.0093C37.1037 13.7929 36.8174 13.6847 36.4474 13.6847ZM43.766 16.5123C43.766 16.8684 43.7695 17.1931 43.7764 17.4863C43.7834 17.7726 43.8148 18.0554 43.8707 18.3346H43.3052L43.0957 17.5911H43.0538C42.9142 17.8354 42.7117 18.0379 42.4464 18.1985C42.1811 18.3591 41.8704 18.4394 41.5143 18.4394C40.8161 18.4394 40.2959 18.2194 39.9538 17.7796C39.6187 17.3397 39.4511 16.652 39.4511 15.7164C39.4511 14.8227 39.6606 14.1455 40.0795 13.6847C40.5054 13.2169 41.0884 12.983 41.8285 12.983C42.0868 12.983 42.2893 12.9969 42.4359 13.0249C42.5895 13.0528 42.7536 13.0982 42.9281 13.161V10.9827H43.766V16.5123ZM41.6504 17.7063C42.0065 17.7063 42.2893 17.6155 42.4987 17.434C42.7082 17.2455 42.8513 16.9627 42.9281 16.5857V13.9884C42.8025 13.8906 42.6593 13.8208 42.4987 13.7789C42.3382 13.737 42.1252 13.7161 41.8599 13.7161C41.3781 13.7161 41.0011 13.8767 40.7288 14.1978C40.4565 14.512 40.3204 15.0182 40.3204 15.7164C40.3204 16.0027 40.3413 16.268 40.3832 16.5123C40.4321 16.7567 40.5089 16.9662 40.6136 17.1407C40.7183 17.3153 40.8545 17.4549 41.0221 17.5596C41.1966 17.6574 41.4061 17.7063 41.6504 17.7063ZM48.1718 10.9827H49.0096V13.5904H49.0515C49.2121 13.3879 49.4146 13.2308 49.6589 13.1191C49.9103 13.0074 50.1826 12.9516 50.4758 12.9516C51.1531 12.9516 51.6593 13.168 51.9944 13.6009C52.3365 14.0338 52.5076 14.704 52.5076 15.6117C52.5076 16.5263 52.2842 17.221 51.8373 17.6958C51.3905 18.1706 50.7621 18.4079 49.9522 18.4079C49.5612 18.4079 49.2051 18.3661 48.8839 18.2823C48.5698 18.1985 48.3324 18.1077 48.1718 18.01V10.9827ZM50.3292 13.6847C49.9801 13.6847 49.6973 13.7824 49.4809 13.9779C49.2645 14.1734 49.1074 14.4492 49.0096 14.8053V17.4444C49.1423 17.5212 49.3029 17.5806 49.4914 17.6225C49.6799 17.6574 49.8754 17.6748 50.0779 17.6748C50.5526 17.6748 50.9297 17.5073 51.2089 17.1721C51.4952 16.837 51.6383 16.3134 51.6383 15.6012C51.6383 15.3289 51.6139 15.0741 51.565 14.8367C51.5161 14.5993 51.4393 14.3968 51.3346 14.2293C51.2299 14.0617 51.0937 13.929 50.9262 13.8313C50.7656 13.7335 50.5666 13.6847 50.3292 13.6847ZM55.2444 16.4705L55.5376 17.4759H55.59L55.8204 16.46L56.8362 13.0772H57.6845L56.1346 17.7796C56.0159 18.1217 55.8972 18.4533 55.7785 18.7745C55.6668 19.0957 55.5411 19.3819 55.4015 19.6333C55.2618 19.8846 55.1047 20.0836 54.9302 20.2302C54.7556 20.3838 54.5531 20.4606 54.3227 20.4606C54.0714 20.4606 53.8654 20.4257 53.7048 20.3559L53.8515 19.6333C53.9422 19.6682 54.0295 19.6856 54.1133 19.6856C54.3088 19.6856 54.4973 19.5809 54.6788 19.3715C54.8604 19.169 55.0105 18.8164 55.1292 18.3137L53.0241 13.0772H53.9876L55.2444 16.4705Z" fill="black"/>
</svg>
