<svg width="311" height="46" viewBox="0 0 311 46" fill="none" xmlns="http://www.w3.org/2000/svg">
<path d="M0 32.3776L1.63578 26.529C4.21283 28.4937 7.85907 30.0381 11.3682 30.0381C14.6946 30.0381 16.4675 28.6308 16.4675 26.0629C16.4675 23.4859 14.4113 22.6908 9.96092 21.055C4.62406 19.0446 0.740215 16.7965 0.740215 11.2769C0.740215 5.14497 5.4191 1.49872 12.209 1.49872C15.8095 1.49872 19.602 2.53137 21.8501 3.79247L20.0681 9.22072C17.8657 7.95961 14.7312 7.06404 12.209 7.06404C9.16587 7.06404 7.15541 8.42567 7.15541 10.6646C7.15541 13.2873 9.77815 14.3108 13.7534 15.7639C18.9989 17.6829 22.8827 19.3644 22.8827 25.3135C22.8827 31.9115 18.2038 35.6583 11.0393 35.6583C6.97264 35.6583 2.94258 34.4429 0 32.3776Z" fill="#1D1D1B"/>
<path d="M28.8226 1.96478H36.965L45.811 17.6921L55.1231 1.96478H63.0279V35.1922H56.8046V10.1071L48.2418 25.0394H43.3253L34.9454 10.1071V35.1922H28.8135V1.96478H28.8226Z" fill="#1D1D1B"/>
<path d="M88.78 25.8253H76.8909L73.6193 35.1831H67.2041L79.5593 1.95563H86.3949L98.7501 35.1831H92.0607L88.78 25.8253ZM86.998 20.8174L82.8309 8.88258L78.6637 20.8174H86.998Z" fill="#1D1D1B"/>
<path d="M113.308 22.2247H109.287V35.1831H102.972V1.96478H114.578C121.688 1.96478 125.617 6.13192 125.617 11.6972C125.617 15.773 123.461 19.3279 119.394 21.1007L128.569 35.1831H121.13L113.308 22.2247ZM109.278 17.2169H113.582C116.534 17.2169 119.01 15.6268 119.01 12.1176C119.01 8.65413 116.625 7.20112 113.628 7.20112H109.278V17.2169Z" fill="#1D1D1B"/>
<path d="M152.713 7.48441H144.004V35.1922H137.644V7.48441H128.843V1.96478H152.713V7.48441Z" fill="#1D1D1B"/>
<path d="M166.521 28.6856V0H172.37V27.7535C172.37 29.7183 173.165 30.5133 174.572 30.5133C175.413 30.5133 176.208 30.23 176.774 30.0473L177.432 34.6805C176.445 35.1465 174.956 35.6674 172.936 35.6674C168.906 35.6583 166.521 33.5016 166.521 28.6856Z" fill="#1D1D1B"/>
<path d="M178.831 23.3487C178.831 16.239 184.067 11.0392 191.698 11.0392C199.282 11.0392 204.519 16.2299 204.519 23.3487C204.519 30.4585 199.273 35.6583 191.698 35.6583C184.076 35.6583 178.831 30.4585 178.831 23.3487ZM198.487 23.3031C198.487 19.2273 195.728 16.4218 191.707 16.4218C187.631 16.4218 184.871 19.2273 184.871 23.3487C184.871 27.5159 187.677 30.2757 191.707 30.2757C195.773 30.2757 198.487 27.4245 198.487 23.3031Z" fill="#1D1D1B"/>
<path d="M210.422 27.8906V16.4218H206.776V11.5053H210.422V4.86166L216.271 4.1123V11.5053H222.686V16.4218H216.271V27.0955C216.271 29.3436 217.303 30.3671 219.076 30.3671C220.621 30.3671 222.165 29.6634 223.152 29.106L224.084 33.8306C222.631 34.8175 220.337 35.6583 217.669 35.6583C213.136 35.6583 210.422 33.1269 210.422 27.8906Z" fill="#1D1D1B"/>
<path d="M228.397 27.8906V16.4218H224.751V11.5053H228.397V4.86166L234.246 4.1123V11.5053H240.661V16.4218H234.246V27.0955C234.246 29.3436 235.278 30.3671 237.051 30.3671C238.596 30.3671 240.14 29.6634 241.127 29.106L242.059 33.8306C240.606 34.8175 238.312 35.6583 235.644 35.6583C231.111 35.6583 228.397 33.1269 228.397 27.8906Z" fill="#1D1D1B"/>
<path d="M266.77 24.6099H249.407C249.781 28.5851 252.496 30.7418 256.608 30.7418C259.697 30.7418 262.411 29.6634 264.239 28.2652L265.692 32.8527C263.535 34.4428 260.218 35.6583 256.005 35.6583C248.466 35.6583 243.467 30.4676 243.467 23.3944C243.467 16.0928 248.612 11.0392 255.402 11.0392C262.237 11.0392 266.77 16.0928 266.77 23.7234V24.6099ZM260.83 20.6346C260.409 17.6372 258.253 15.5811 255.402 15.5811C252.496 15.5811 250.302 17.5915 249.599 20.6346H260.83Z" fill="#1D1D1B"/>
<path d="M285.961 11.5602L285.02 17.1803C284.316 16.9427 283.384 16.7143 282.543 16.7143C278.842 16.7143 277.115 19.2913 277.115 24.0159V35.2014H271.312V11.5053H277.115V15.2978C278.477 12.1633 280.578 10.9936 282.918 10.9936C284.042 10.9936 285.075 11.2312 285.961 11.5602Z" fill="#1D1D1B"/>
<path d="M311 11.5054L300.655 38.1348C298.873 42.768 296.205 45.1075 291.581 45.1075C290.319 45.1075 288.958 44.9704 287.651 44.4495L288.355 39.4416C289.013 39.6792 289.707 39.8163 290.511 39.8163C292.668 39.8163 294.258 39.0213 295.373 36.3985L296.259 34.2418L286.664 11.4962H293.079L299.303 27.5982L304.914 11.4962H311V11.5054Z" fill="#1D1D1B"/>
</svg>
