<svg width="339" height="77" viewBox="0 0 339 77" fill="none" xmlns="http://www.w3.org/2000/svg">
<path d="M175.786 54.3436C177.757 54.3436 179.225 53.8392 180.188 53.3806L179.546 48.8408C178.996 49.0242 178.216 49.2994 177.391 49.2994C176.015 49.2994 175.235 48.5198 175.235 46.5938V19.401H169.503V47.511C169.503 52.2342 171.842 54.3436 175.786 54.3436ZM194.663 54.3436C202.092 54.3436 207.228 49.2535 207.228 42.2833C207.228 35.3131 202.092 30.2231 194.663 30.2231C187.189 30.2231 182.053 35.3131 182.053 42.2833C182.053 49.2535 187.189 54.3436 194.663 54.3436ZM194.663 49.0701C190.719 49.0701 187.968 46.3646 187.968 42.2833C187.968 38.248 190.674 35.4966 194.663 35.4966C198.607 35.4966 201.312 38.248 201.312 42.2375C201.312 46.2728 198.653 49.0701 194.663 49.0701ZM220.574 54.3436C223.188 54.3436 225.435 53.5182 226.856 52.5552L225.939 47.9237C224.976 48.4739 223.463 49.1618 221.95 49.1618C220.207 49.1618 219.198 48.153 219.198 45.9518V35.4966H225.481V30.6816H219.198V23.4363L213.466 24.17V30.6816H209.89V35.4966H213.466V46.7314C213.466 51.8673 216.126 54.3436 220.574 54.3436ZM238.666 54.3436C241.28 54.3436 243.527 53.5182 244.948 52.5552L244.031 47.9237C243.068 48.4739 241.555 49.1618 240.042 49.1618C238.299 49.1618 237.29 48.153 237.29 45.9518V35.4966H243.573V30.6816H237.29V23.4363L231.558 24.17V30.6816H227.981V35.4966H231.558V46.7314C231.558 51.8673 234.218 54.3436 238.666 54.3436ZM269.643 42.6502C269.643 35.1756 265.195 30.2231 258.5 30.2231C251.851 30.2231 246.807 35.1756 246.807 42.3292C246.807 49.2535 251.714 54.3436 259.096 54.3436C263.224 54.3436 266.479 53.1513 268.589 51.5922L267.167 47.0983C265.379 48.4739 262.719 49.5286 259.693 49.5286C255.657 49.5286 252.998 47.4193 252.631 43.5215H269.643V42.6502ZM252.814 39.6237C253.502 36.643 255.657 34.6712 258.5 34.6712C261.298 34.6712 263.407 36.6888 263.82 39.6237H252.814ZM285.935 30.1772C283.642 30.1772 281.578 31.3236 280.248 34.396V30.6816H274.562V53.885H280.248V42.9253C280.248 38.2938 281.945 35.7717 285.568 35.7717C286.393 35.7717 287.31 36.001 287.998 36.2303L288.915 30.7275C288.044 30.4065 287.035 30.1772 285.935 30.1772ZM307.909 30.6816L302.406 46.4563L296.308 30.6816H290.025L299.426 52.9679L298.554 55.0773C297.454 57.6452 295.895 58.4248 293.785 58.4248C293.006 58.4248 292.318 58.2872 291.676 58.0579L290.988 62.9646C292.272 63.469 293.602 63.6066 294.84 63.6066C299.38 63.6066 301.994 61.3138 303.736 56.774L313.871 30.6816H307.909Z" fill="#1D1D1B"/>
<path d="M13.0298 21.1537C16.1999 21.1537 19.2534 21.9462 22.1903 23.5312V29.1254C18.8183 27.0897 15.8269 26.0719 13.2163 26.0719C11.6313 26.0719 10.3881 26.3827 9.48684 27.0043C8.60109 27.6103 8.15821 28.4261 8.15821 29.4517C8.15821 30.6794 8.98957 31.8137 10.6523 32.8549C11.1185 33.1657 12.9133 34.0359 16.0367 35.4655C18.7095 36.7242 20.6364 38.1228 21.8174 39.6612C22.9984 41.1996 23.5889 43.0488 23.5889 45.2088C23.5889 48.0059 22.5788 50.2668 20.5587 51.9917C18.5541 53.7011 15.9513 54.5557 12.7501 54.5557C10.6678 54.5557 8.87303 54.3304 7.3657 53.8798C5.87391 53.4136 4.19565 52.6211 2.33092 51.5022V45.302C5.81176 48.1923 9.09058 49.6375 12.1674 49.6375C13.7058 49.6375 14.949 49.3034 15.8969 48.6352C16.8448 47.967 17.3187 47.0813 17.3187 45.978C17.3187 44.4706 16.4951 43.243 14.8479 42.2951C13.4805 41.5492 11.7167 40.6557 9.55676 39.6145C6.99275 38.4491 5.07363 37.0894 3.7994 35.5354C2.5407 33.9815 1.91135 32.1789 1.91135 30.1277C1.91135 27.3928 2.92919 25.2172 4.96486 23.6011C7.00052 21.9695 9.68885 21.1537 13.0298 21.1537ZM34.754 21.5732L45.4529 34.4166L56.1518 21.5732H61.7693V54.1362H55.4759V31.2699H55.2894L45.8725 42.738H44.9867L35.5698 31.2699H35.3833V54.1362H29.0899V21.5732H34.754ZM85.4515 21.5732L99.8332 54.1362H93.1901L89.8103 46.211H75.3353L72.1885 54.1362H65.592L79.0181 21.5732H85.4515ZM77.2466 41.4327H87.7591L82.2581 28.5427L77.2466 41.4327ZM115.404 21.5732C118.465 21.5732 120.959 22.4201 122.886 24.1139C124.813 25.8077 125.776 28.0143 125.776 30.7338C125.776 32.5829 125.295 34.199 124.331 35.5821C123.383 36.9495 121.969 38.0295 120.089 38.822C121.13 39.3815 122.055 40.1429 122.863 41.1063C123.671 42.0698 124.673 43.6937 125.87 45.978C127.859 49.925 129.335 52.6444 130.298 54.1362H123.282C122.801 53.4214 122.148 52.2792 121.324 50.7097C119.522 47.2444 118.201 44.9135 117.362 43.717C116.523 42.5049 115.715 41.6502 114.938 41.153C114.161 40.6402 113.267 40.3838 112.257 40.3838H109.973V54.1362H103.679V21.5732H115.404ZM113.982 35.4655C115.629 35.4655 116.919 35.0537 117.851 34.2301C118.799 33.4065 119.273 32.2799 119.273 30.8503C119.273 29.3585 118.807 28.2474 117.875 27.5171C116.942 26.7712 115.614 26.3982 113.889 26.3982H109.973V35.4655H113.982ZM159.085 21.5732V26.4915H147.524V54.1362H141.23V26.4915H129.669V21.5732H159.085Z" fill="#1D1D1B"/>
</svg>
