<svg width="290" height="150" viewBox="0 0 290 150" fill="none" xmlns="http://www.w3.org/2000/svg">
<path d="M54.626 1.88898H70.0183L86.7492 31.6699L104.4 1.88898H119.374V64.8806H107.579V17.2813L91.4338 45.6401H82.1482L66.2539 17.365V64.8806H54.626V1.88898Z" fill="#1D1D1B"/>
<path d="M168.312 47.1459H145.809L139.535 64.8806H127.405L150.828 1.88898H163.794L187.218 64.8806H174.502L168.312 47.1459ZM164.882 37.6093L157.018 15.0227L149.155 37.6093H164.882Z" fill="#1D1D1B"/>
<path d="M214.74 40.2862H207.128V64.8806H195.165V1.88898H217.166C230.634 1.88898 238.08 9.75247 238.08 20.3765C238.08 28.0727 233.981 34.8487 226.284 38.1949L243.684 64.8806H229.547L214.74 40.2862ZM207.128 30.8333H215.326C220.931 30.8333 225.615 27.8218 225.615 21.1294C225.615 14.6044 221.098 11.8438 215.409 11.8438H207.128V30.8333Z" fill="#1D1D1B"/>
<path d="M289.443 12.3457H272.963V64.8806H260.917V12.3457H244.27V1.88898H289.443V12.3457Z" fill="#1D1D1B"/>
<path d="M26.1001 28.0728C18.5712 25.3122 13.6356 23.3881 13.6356 18.3689C13.6356 14.1025 17.4837 11.5092 23.2559 11.5092C28.0241 11.5092 33.9636 13.1823 38.1463 15.6083L41.4925 5.31883C37.2261 2.89286 30.0318 0.968811 23.2559 0.968811C10.3731 0.968811 1.50578 7.91211 1.50578 19.54C1.50578 29.9968 8.86734 34.2632 18.9895 38.1113C27.4386 41.2065 31.2867 42.7122 31.2867 47.5642C31.2867 52.4161 27.9405 55.0931 21.5828 55.0931C14.8904 55.0931 8.0308 52.1652 3.0952 48.4007L0 46.2257V118.587C0 127.705 4.51732 131.804 12.1299 131.804C15.9779 131.804 18.8222 130.8 20.6626 129.964L19.4078 121.18C18.3203 121.514 16.8145 122.1 15.2251 122.1C12.5481 122.1 11.0424 120.594 11.0424 116.83V64.4623C14.2212 65.2989 17.5674 65.7171 20.9135 65.7171C34.4655 65.7171 43.3329 58.6065 43.3329 46.1421C43.3329 34.8488 35.9713 31.6699 26.1001 28.0728Z" fill="#1D1D1B"/>
<path d="M23.3394 108.381C23.3394 94.9124 33.2942 85.0412 47.7664 85.0412C62.1549 85.0412 72.1097 94.9124 72.1097 108.381C72.1097 121.849 62.1549 131.72 47.7664 131.72C33.2942 131.72 23.3394 121.849 23.3394 108.381ZM60.5655 108.297C60.5655 100.601 55.2952 95.247 47.6827 95.247C39.9865 95.247 34.7163 100.601 34.7163 108.381C34.7163 116.244 40.0702 121.514 47.6827 121.514C55.4626 121.514 60.5655 116.077 60.5655 108.297Z" fill="#1D1D1B"/>
<path d="M83.2358 116.997V95.2471H76.2925V85.9615H83.2358V73.3297L94.3618 71.9076V85.9615H106.492V95.2471H94.3618V115.491C94.3618 119.758 96.2858 121.682 99.7156 121.682C102.644 121.682 105.571 120.343 107.412 119.256L109.169 128.207C106.408 130.047 102.058 131.637 97.0387 131.637C88.3387 131.72 83.2358 126.952 83.2358 116.997Z" fill="#1D1D1B"/>
<path d="M119.039 116.997V95.2471H112.096V85.9615H119.039V73.3297L130.165 71.9076V85.9615H142.212V95.2471H130.082V115.491C130.082 119.758 132.006 121.682 135.436 121.682C138.364 121.682 141.292 120.343 143.132 119.256L144.889 128.207C142.128 130.047 137.778 131.637 132.759 131.637C124.142 131.72 119.039 126.952 119.039 116.997Z" fill="#1D1D1B"/>
<path d="M191.735 110.807H158.859C159.528 118.336 164.715 122.435 172.495 122.435C178.35 122.435 183.537 120.427 186.967 117.75L189.727 126.45C185.628 129.462 179.354 131.804 171.407 131.804C157.102 131.804 147.649 121.933 147.649 108.548C147.649 94.7451 157.437 85.1249 170.236 85.1249C183.202 85.1249 191.819 94.7451 191.819 109.134V110.807H191.735ZM180.442 103.278C179.605 97.5893 175.59 93.6576 170.152 93.6576C164.631 93.6576 160.449 97.5057 159.194 103.278H180.442Z" fill="#1D1D1B"/>
<path d="M226.368 86.0451L224.611 96.6692C223.273 96.2509 221.516 95.749 219.926 95.749C212.899 95.749 209.637 100.601 209.637 109.552V130.716H198.678V85.8778H209.637V93.0721C212.23 87.1326 216.162 84.874 220.596 84.874C222.771 84.9576 224.695 85.4595 226.368 86.0451Z" fill="#1D1D1B"/>
<path d="M273.8 85.9614L254.225 136.405C250.879 145.189 245.776 149.622 236.993 149.622C234.567 149.622 232.057 149.371 229.547 148.367L230.886 138.915C232.141 139.333 233.479 139.584 234.985 139.584C239.084 139.584 242.096 138.078 244.187 133.142L245.86 129.043L227.707 85.9614H239.837L251.632 116.495L262.256 85.9614H273.8Z" fill="#1D1D1B"/>
</svg>
