<svg width="641" height="400" viewBox="0 0 641 400" fill="none" xmlns="http://www.w3.org/2000/svg">
<path d="M54.8417 47.7728C67.4543 47.7728 79.6033 50.926 91.2885 57.2323V79.4899C77.8721 71.3906 65.9705 67.341 55.5836 67.341C49.2773 67.341 44.3311 68.5775 40.7452 71.0506C37.2211 73.4618 35.459 76.7077 35.459 80.7883C35.459 85.6726 38.7667 90.186 45.3822 94.3283C47.237 95.5649 54.378 99.0272 66.8052 104.715C77.4393 109.723 85.1059 115.288 89.8047 121.408C94.5035 127.529 96.8529 134.887 96.8529 143.481C96.8529 154.609 92.8342 163.605 84.7967 170.468C76.8211 177.269 66.4651 180.669 53.7288 180.669C45.444 180.669 38.303 179.773 32.3059 177.98C26.3705 176.125 19.6932 172.972 12.274 168.52V143.852C26.1232 155.351 39.1686 161.101 51.4103 161.101C57.5311 161.101 62.4773 159.772 66.2487 157.113C70.0201 154.455 71.9059 150.931 71.9059 146.541C71.9059 140.544 68.629 135.659 62.0754 131.888C56.6347 128.92 49.6173 125.365 41.0234 121.223C30.822 116.586 23.1864 111.176 18.1166 104.993C13.1087 98.8108 10.6047 91.6389 10.6047 83.4778C10.6047 72.5963 14.6543 63.9405 22.7536 57.5105C30.8529 51.0187 41.5489 47.7728 54.8417 47.7728ZM141.275 49.4422L183.843 100.542L226.411 49.4422H248.761V179H223.721V88.022H222.979L185.512 133.65H181.988L144.521 88.022H143.779V179H118.74V49.4422H141.275ZM342.985 49.4422L400.206 179H373.775L360.327 147.468H302.736L290.216 179H263.97L317.389 49.4422H342.985ZM310.341 128.457H352.166L330.28 77.1714L310.341 128.457ZM462.156 49.4422C474.336 49.4422 484.259 52.8117 491.926 59.5508C499.592 66.2899 503.425 75.0693 503.425 85.889C503.425 93.2464 501.509 99.6763 497.675 105.179C493.904 110.62 488.278 114.917 480.797 118.07C484.939 120.296 488.618 123.325 491.833 127.158C495.048 130.992 499.036 137.452 503.796 146.541C511.71 162.245 517.584 173.065 521.417 179H493.502C491.585 176.156 488.989 171.612 485.712 165.367C478.54 151.58 473.285 142.306 469.946 137.545C466.608 132.723 463.393 129.322 460.301 127.344C457.21 125.304 453.655 124.283 449.636 124.283H440.548V179H415.508V49.4422H462.156ZM456.499 104.715C463.052 104.715 468.184 103.077 471.894 99.8C475.665 96.5232 477.551 92.0408 477.551 86.3527C477.551 80.4173 475.696 75.9967 471.986 73.0909C468.277 70.1232 462.991 68.6393 456.128 68.6393H440.548V104.715H456.499ZM635.951 49.4422V69.0103H589.952V179H564.912V69.0103H518.913V49.4422H635.951Z" fill="black"/>
<path d="M39.6957 352.899C47.8628 352.899 53.9406 350.81 57.9291 348.911L55.2701 330.108C52.9909 330.867 49.7621 332.007 46.3433 332.007C40.6454 332.007 37.4165 328.778 37.4165 320.801V208.171H13.6751V324.6C13.6751 344.162 23.3616 352.899 39.6957 352.899ZM117.884 352.899C148.653 352.899 169.925 331.817 169.925 302.947C169.925 274.078 148.653 252.995 117.884 252.995C86.9249 252.995 65.6525 274.078 65.6525 302.947C65.6525 331.817 86.9249 352.899 117.884 352.899ZM117.884 331.057C101.55 331.057 90.1537 319.851 90.1537 302.947C90.1537 286.233 101.36 274.837 117.884 274.837C134.218 274.837 145.424 286.233 145.424 302.757C145.424 319.471 134.408 331.057 117.884 331.057ZM225.204 352.899C236.03 352.899 245.337 349.481 251.225 345.492L247.426 326.309C243.437 328.588 237.17 331.437 230.902 331.437C223.685 331.437 219.506 327.259 219.506 318.142V274.837H245.527V254.895H219.506V224.885L195.765 227.924V254.895H180.95V274.837H195.765V321.371C195.765 342.643 206.781 352.899 225.204 352.899ZM300.138 352.899C310.964 352.899 320.271 349.481 326.159 345.492L322.36 326.309C318.371 328.588 312.104 331.437 305.836 331.437C298.618 331.437 294.44 327.259 294.44 318.142V274.837H320.461V254.895H294.44V224.885L270.699 227.924V254.895H255.884V274.837H270.699V321.371C270.699 342.643 281.715 352.899 300.138 352.899ZM428.443 304.467C428.443 273.508 410.019 252.995 382.289 252.995C354.749 252.995 333.857 273.508 333.857 303.137C333.857 331.817 354.179 352.899 384.758 352.899C401.852 352.899 415.337 347.961 424.074 341.503L418.186 322.89C410.779 328.588 399.763 332.956 387.228 332.956C370.514 332.956 359.497 324.22 357.978 308.075H428.443V304.467ZM358.738 291.931C361.587 279.586 370.514 271.419 382.289 271.419C393.875 271.419 402.612 279.776 404.321 291.931H358.738ZM495.919 252.805C486.422 252.805 477.875 257.554 472.367 270.279V254.895H448.816V351H472.367V305.606C472.367 286.423 479.395 275.977 494.399 275.977C497.818 275.977 501.617 276.927 504.466 277.876L508.264 255.085C504.656 253.755 500.477 252.805 495.919 252.805ZM586.935 254.895L564.143 320.231L538.882 254.895H512.861L551.797 347.201L548.189 355.938C543.63 366.574 537.173 369.803 528.436 369.803C525.207 369.803 522.358 369.233 519.699 368.284L516.85 388.606C522.168 390.696 527.676 391.266 532.804 391.266C551.607 391.266 562.433 381.769 569.651 362.966L611.626 254.895H586.935Z" fill="black"/>
</svg>
