<svg width="111" height="58" viewBox="0 0 111 58" fill="none" xmlns="http://www.w3.org/2000/svg">
<path d="M20.9488 0.352844H26.8517L33.2679 11.7736L40.0369 0.352844H45.7794V24.5098H41.256V6.25573L35.0644 17.1312H31.5034L25.408 6.28781V24.5098H20.9488V0.352844Z" fill="#1D1D1B"/>
<path d="M64.5465 17.7086H55.9167L53.5107 24.5098H48.8589L57.8416 0.352844H62.8141L71.7968 24.5098H66.9205L64.5465 17.7086ZM63.2312 14.0514L60.2156 5.38955L57.2 14.0514H63.2312Z" fill="#1D1D1B"/>
<path d="M82.3514 15.078H79.4321V24.5098H74.8445V0.352844H83.2818C88.4468 0.352844 91.302 3.36845 91.302 7.44272C91.302 10.3942 89.73 12.9927 86.7786 14.276L93.4514 24.5098H88.0297L82.3514 15.078ZM79.4321 11.4528H82.576C84.7254 11.4528 86.5219 10.2979 86.5219 7.73145C86.5219 5.22914 84.7896 4.17047 82.6081 4.17047H79.4321V11.4528Z" fill="#1D1D1B"/>
<path d="M111 4.36296H104.68V24.5098H100.06V4.36296H93.6763V0.352844H111V4.36296Z" fill="#1D1D1B"/>
<path d="M10.0092 10.3942C7.12196 9.33555 5.22919 8.59769 5.22919 6.67283C5.22919 5.0367 6.70491 4.0422 8.91849 4.0422C10.7471 4.0422 13.0248 4.68381 14.6289 5.61416L15.9121 1.66821C14.276 0.737861 11.517 0 8.91849 0C3.97803 0 0.577456 2.66272 0.577456 7.12196C0.577456 11.1321 3.40058 12.7682 7.28237 14.2439C10.5225 15.4309 11.9983 16.0084 11.9983 17.8691C11.9983 19.7298 10.715 20.7564 8.27687 20.7564C5.7104 20.7564 3.07977 19.6335 1.18699 18.1899L0 17.3558V45.1058C0 48.6026 1.73237 50.1745 4.65173 50.1745C6.12745 50.1745 7.2182 49.7896 7.92398 49.4688L7.44277 46.1003C7.02572 46.2286 6.44826 46.4532 5.83872 46.4532C4.81214 46.4532 4.23468 45.8757 4.23468 44.4321V24.3494C5.45375 24.6702 6.73699 24.8306 8.02023 24.8306C13.2173 24.8306 16.6179 22.1038 16.6179 17.3237C16.6179 12.9928 13.7948 11.7737 10.0092 10.3942Z" fill="#1D1D1B"/>
<path d="M8.95044 41.1918C8.95044 36.0268 12.7681 32.2413 18.3181 32.2413C23.836 32.2413 27.6536 36.0268 27.6536 41.1918C27.6536 46.3569 23.836 50.1424 18.3181 50.1424C12.7681 50.1424 8.95044 46.3569 8.95044 41.1918ZM23.2264 41.1598C23.2264 38.2083 21.2053 36.1551 18.286 36.1551C15.3345 36.1551 13.3134 38.2083 13.3134 41.1918C13.3134 44.2075 15.3666 46.2285 18.286 46.2285C21.2695 46.2285 23.2264 44.1433 23.2264 41.1598Z" fill="#1D1D1B"/>
<path d="M31.9205 44.4962V36.1552H29.2578V32.5942H31.9205V27.75L36.1873 27.2046V32.5942H40.839V36.1552H36.1873V43.9187C36.1873 45.5549 36.9251 46.2927 38.2405 46.2927C39.3633 46.2927 40.4861 45.7794 41.1919 45.3624L41.8656 48.795C40.8069 49.5008 39.1387 50.1104 37.2139 50.1104C33.8775 50.1424 31.9205 48.3138 31.9205 44.4962Z" fill="#1D1D1B"/>
<path d="M45.6514 44.4962V36.1552H42.9886V32.5942H45.6514V27.75L49.9181 27.2046V32.5942H54.5378V36.1552H49.886V43.9187C49.886 45.5549 50.6239 46.2927 51.9392 46.2927C53.0621 46.2927 54.1849 45.7794 54.8907 45.3624L55.5644 48.795C54.5057 49.5008 52.8375 50.1104 50.9126 50.1104C47.6083 50.1424 45.6514 48.3138 45.6514 44.4962Z" fill="#1D1D1B"/>
<path d="M73.5291 42.1222H60.9213C61.178 45.0095 63.167 46.5815 66.1505 46.5815C68.3962 46.5815 70.3852 45.8116 71.7005 44.785L72.7592 48.1214C71.1872 49.2763 68.7812 50.1746 65.7335 50.1746C60.2476 50.1746 56.6225 46.389 56.6225 41.2561C56.6225 35.9627 60.376 32.2734 65.2843 32.2734C70.2569 32.2734 73.5612 35.9627 73.5612 41.4806V42.1222H73.5291ZM69.1982 39.235C68.8774 37.0535 67.3375 35.5457 65.2523 35.5457C63.1349 35.5457 61.5309 37.0214 61.0497 39.235H69.1982Z" fill="#1D1D1B"/>
<path d="M86.811 32.6263L86.1373 36.7006C85.624 36.5402 84.9503 36.3477 84.3407 36.3477C81.646 36.3477 80.3948 38.2084 80.3948 41.6411V49.7575H76.1922V32.5622H80.3948V35.3211C81.3893 33.0434 82.8971 32.1772 84.5974 32.1772C85.4315 32.2093 86.1694 32.4018 86.811 32.6263Z" fill="#1D1D1B"/>
<path d="M105.001 32.5942L97.494 51.939C96.2108 55.3075 94.2539 57.0077 90.8854 57.0077C89.955 57.0077 88.9926 56.9115 88.0302 56.5265L88.5435 52.9014C89.0247 53.0618 89.538 53.158 90.1154 53.158C91.6874 53.158 92.8423 52.5806 93.6443 50.6878L94.286 49.1158L87.3244 32.5942H91.9761L96.4995 44.3037L100.574 32.5942H105.001Z" fill="#1D1D1B"/>
</svg>
