<svg width="304" height="50" viewBox="0 0 304 50" fill="none" xmlns="http://www.w3.org/2000/svg">
<rect y="0.32962" width="304" height="49.3758" fill="white"/>
<path d="M161.673 19.0353C160.996 18.6185 160.116 18.6185 159.372 19.0353L154.095 22.2296L150.509 24.312L145.231 27.5069C144.555 27.9237 143.675 27.9237 142.931 27.5069L138.736 25.007C138.059 24.5907 137.586 23.827 137.586 22.9933V18.0623C137.586 17.2292 137.992 16.4648 138.736 16.048L142.861 13.6175C143.538 13.2012 144.417 13.2012 145.161 13.6175L149.286 16.048C149.963 16.4648 150.437 17.2292 150.437 18.0623V21.2565L154.023 19.1041V15.9099C154.027 15.0768 153.624 14.3124 152.874 13.8962L145.231 9.31264C144.555 8.89579 143.675 8.89579 142.931 9.31264L135.15 13.8962C134.406 14.3124 134 15.0768 134 15.9099V25.1463C134 25.9794 134.406 26.7438 135.15 27.16L142.931 31.7435C143.608 32.1604 144.487 32.1604 145.231 31.7435L150.509 28.6187L154.095 26.4656L159.372 23.3408C160.049 22.9239 160.928 22.9239 161.673 23.3408L165.797 25.7713C166.474 26.1882 166.947 26.9519 166.947 27.785V32.716C166.947 33.5491 166.541 34.3128 165.797 34.7297L161.673 37.2296C160.996 37.6464 160.116 37.6464 159.372 37.2296L155.247 34.799C154.571 34.3822 154.097 33.6185 154.097 32.7854V29.5905L150.511 31.7435V34.9365C150.511 35.7702 150.917 36.534 151.661 36.9508L159.442 41.5337C160.119 41.9506 160.998 41.9506 161.743 41.5337L169.523 36.9508C170.2 36.534 170.673 35.7702 170.673 34.9365V25.7019C170.673 24.8682 170.268 24.1045 169.523 23.6876L161.673 19.0353Z" fill="#7950DD"/>
<path d="M184.957 38.8939V31.2261C185.782 32.2729 187.28 32.8585 189.019 32.8585C193.45 32.8585 196.444 29.6868 196.444 24.852C196.444 20.0172 193.694 16.8448 189.386 16.8448C187.399 16.8448 185.871 17.5842 184.954 18.7854V17.0911H180.704V38.8939H184.957ZM188.502 29.163C186.21 29.163 184.712 27.4381 184.712 24.8507C184.712 22.2327 186.212 20.5084 188.502 20.5084C190.733 20.5084 192.261 22.2327 192.261 24.8507C192.261 27.4369 190.733 29.163 188.502 29.163Z" fill="black"/>
<path d="M206.093 32.8585C210.829 32.8585 214.222 29.4711 214.222 24.852C214.222 20.2328 210.829 16.8448 206.093 16.8448C201.356 16.8448 197.964 20.2328 197.964 24.852C197.964 29.4711 201.356 32.8585 206.093 32.8585ZM206.093 29.163C203.801 29.163 202.242 27.4075 202.242 24.8507C202.242 22.2633 203.801 20.5084 206.093 20.5084C208.384 20.5084 209.943 22.2633 209.943 24.8507C209.943 27.4075 208.384 29.163 206.093 29.163Z" fill="black"/>
<path d="M221.037 32.6116V10.3476H216.79V32.6116H221.037Z" fill="black"/>
<path d="M233.806 17.0911L230.597 27.0994L227.358 17.0911H223.019L228.611 32.4885L226.35 38.8939H230.414L232.583 32.5504L238.176 17.0911H233.806Z" fill="black"/>
<path d="M250.106 18.631C249.249 17.5535 247.722 16.8448 245.856 16.8448C241.363 16.8448 238.644 20.0172 238.644 24.852C238.644 29.6868 241.363 32.8585 245.916 32.8585C247.719 32.8585 249.339 32.181 250.134 31.0411V33.0741C250.134 34.5216 249.186 35.5371 247.903 35.5371H240.815V38.8939H248.577C252.061 38.8939 254.384 36.769 254.384 33.536V17.0911H250.106V18.631ZM246.591 29.163C244.33 29.163 242.832 27.4694 242.832 24.8507C242.832 22.2321 244.332 20.5084 246.591 20.5084C248.883 20.5084 250.381 22.2327 250.381 24.8507C250.381 27.4687 248.883 29.163 246.591 29.163Z" fill="black"/>
<path d="M265.092 32.8585C269.83 32.8585 273.221 29.4711 273.221 24.852C273.221 20.2328 269.83 16.8448 265.092 16.8448C260.355 16.8448 256.963 20.2328 256.963 24.852C256.963 29.4711 260.356 32.8585 265.092 32.8585ZM265.092 29.163C262.8 29.163 261.242 27.4075 261.242 24.8507C261.242 22.2633 262.8 20.5084 265.092 20.5084C267.385 20.5084 268.943 22.2633 268.943 24.8507C268.943 27.4075 267.384 29.163 265.092 29.163Z" fill="black"/>
<path d="M279.823 32.6116V24.112C279.823 22.1121 281.136 20.6628 283.002 20.6628C284.774 20.6628 285.965 22.0177 285.965 23.8964V32.6116H290.243V22.9427C290.243 19.3703 287.982 16.8448 284.499 16.8448C282.39 16.8448 280.679 17.7379 279.823 19.2472V17.0911H275.545V32.6116H279.823Z" fill="black"/>
<path d="M13.617 26.5H14.772L15.087 27.76H15.171C15.493 27.27 15.906 26.899 16.41 26.647C16.928 26.381 17.516 26.248 18.174 26.248C19.574 26.248 20.617 26.661 21.303 27.487C21.989 28.313 22.332 29.664 22.332 31.54C22.332 32.422 22.213 33.22 21.975 33.934C21.751 34.634 21.429 35.229 21.009 35.719C20.589 36.209 20.078 36.587 19.476 36.853C18.888 37.119 18.23 37.252 17.502 37.252C16.984 37.252 16.571 37.217 16.263 37.147C15.969 37.091 15.647 36.986 15.297 36.832V41.2H13.617V26.5ZM17.859 27.718C17.145 27.718 16.578 27.907 16.158 28.285C15.752 28.649 15.465 29.209 15.297 29.965V35.173C15.549 35.369 15.836 35.523 16.158 35.635C16.48 35.733 16.907 35.782 17.439 35.782C18.405 35.782 19.168 35.425 19.728 34.711C20.302 33.983 20.589 32.919 20.589 31.519C20.589 30.945 20.54 30.427 20.442 29.965C20.344 29.489 20.183 29.09 19.959 28.768C19.749 28.432 19.469 28.173 19.119 27.991C18.783 27.809 18.363 27.718 17.859 27.718ZM24.3903 31.75C24.3903 29.972 24.7823 28.614 25.5663 27.676C26.3643 26.724 27.5053 26.248 28.9893 26.248C29.7733 26.248 30.4523 26.381 31.0263 26.647C31.6143 26.899 32.0973 27.27 32.4753 27.76C32.8533 28.236 33.1333 28.817 33.3153 29.503C33.4973 30.175 33.5883 30.924 33.5883 31.75C33.5883 33.528 33.1893 34.893 32.3913 35.845C31.6073 36.783 30.4733 37.252 28.9893 37.252C28.2053 37.252 27.5193 37.126 26.9313 36.874C26.3573 36.608 25.8813 36.237 25.5033 35.761C25.1253 35.271 24.8453 34.69 24.6633 34.018C24.4813 33.332 24.3903 32.576 24.3903 31.75ZM26.1333 31.75C26.1333 32.282 26.1823 32.793 26.2803 33.283C26.3923 33.773 26.5603 34.2 26.7843 34.564C27.0083 34.928 27.3023 35.222 27.6663 35.446C28.0303 35.67 28.4713 35.782 28.9893 35.782C30.8933 35.796 31.8453 34.452 31.8453 31.75C31.8453 31.204 31.7893 30.686 31.6773 30.196C31.5793 29.706 31.4183 29.279 31.1943 28.915C30.9703 28.551 30.6763 28.264 30.3123 28.054C29.9483 27.83 29.5073 27.718 28.9893 27.718C27.0853 27.704 26.1333 29.048 26.1333 31.75ZM42.8155 26.5L45.2305 32.632L45.7555 34.648H45.7975L46.1965 32.59L48.0655 26.5H49.6615L46.1335 37.231H45.3145L42.5635 30.301L42.1645 28.579H42.1015L41.6815 30.322L39.0355 37.231H38.2165L34.5625 26.5H36.3895L38.4685 32.611L38.8255 34.648H38.8465L39.3505 32.569L41.5975 26.5H42.8155ZM58.8933 36.16C58.4733 36.496 57.9413 36.762 57.2973 36.958C56.6673 37.154 55.9953 37.252 55.2813 37.252C54.4833 37.252 53.7903 37.126 53.2023 36.874C52.6143 36.608 52.1313 36.237 51.7533 35.761C51.3753 35.271 51.0953 34.69 50.9133 34.018C50.7313 33.346 50.6403 32.59 50.6403 31.75C50.6403 29.958 51.0393 28.593 51.8373 27.655C52.6353 26.717 53.7763 26.248 55.2603 26.248C55.7363 26.248 56.2123 26.304 56.6883 26.416C57.1643 26.514 57.5913 26.71 57.9693 27.004C58.3473 27.298 58.6553 27.718 58.8933 28.264C59.1313 28.796 59.2503 29.503 59.2503 30.385C59.2503 30.847 59.2083 31.358 59.1243 31.918H52.3833C52.3833 32.534 52.4463 33.08 52.5723 33.556C52.6983 34.032 52.8943 34.438 53.1603 34.774C53.4263 35.096 53.7693 35.348 54.1893 35.53C54.6233 35.698 55.1483 35.782 55.7643 35.782C56.2403 35.782 56.7163 35.698 57.1923 35.53C57.6683 35.362 58.0253 35.166 58.2633 34.942L58.8933 36.16ZM55.2813 27.718C54.4553 27.718 53.7903 27.935 53.2863 28.369C52.7963 28.803 52.5023 29.545 52.4043 30.595H57.6123C57.6123 29.531 57.4093 28.789 57.0033 28.369C56.5973 27.935 56.0233 27.718 55.2813 27.718ZM66.8484 28.117C66.4284 27.977 66.0294 27.907 65.6514 27.907C65.0494 27.907 64.5734 28.075 64.2234 28.411C63.8734 28.733 63.6564 29.146 63.5724 29.65V37H61.8924V26.5H63.0684L63.3834 27.781H63.4674C63.7334 27.305 64.0484 26.941 64.4124 26.689C64.7904 26.423 65.2664 26.29 65.8404 26.29C66.2464 26.29 66.7014 26.36 67.2054 26.5L66.8484 28.117ZM76.6941 36.16C76.2741 36.496 75.7421 36.762 75.0981 36.958C74.4681 37.154 73.7961 37.252 73.0821 37.252C72.2841 37.252 71.5911 37.126 71.0031 36.874C70.4151 36.608 69.9321 36.237 69.5541 35.761C69.1761 35.271 68.8961 34.69 68.7141 34.018C68.5321 33.346 68.4411 32.59 68.4411 31.75C68.4411 29.958 68.8401 28.593 69.6381 27.655C70.4361 26.717 71.5771 26.248 73.0611 26.248C73.5371 26.248 74.0131 26.304 74.4891 26.416C74.9651 26.514 75.3921 26.71 75.7701 27.004C76.1481 27.298 76.4561 27.718 76.6941 28.264C76.9321 28.796 77.0511 29.503 77.0511 30.385C77.0511 30.847 77.0091 31.358 76.9251 31.918H70.1841C70.1841 32.534 70.2471 33.08 70.3731 33.556C70.4991 34.032 70.6951 34.438 70.9611 34.774C71.2271 35.096 71.5701 35.348 71.9901 35.53C72.4241 35.698 72.9491 35.782 73.5651 35.782C74.0411 35.782 74.5171 35.698 74.9931 35.53C75.4691 35.362 75.8261 35.166 76.0641 34.942L76.6941 36.16ZM73.0821 27.718C72.2561 27.718 71.5911 27.935 71.0871 28.369C70.5971 28.803 70.3031 29.545 70.2051 30.595H75.4131C75.4131 29.531 75.2101 28.789 74.8041 28.369C74.3981 27.935 73.8241 27.718 73.0821 27.718ZM87.7572 33.388C87.7572 34.102 87.7642 34.753 87.7782 35.341C87.7922 35.915 87.8552 36.482 87.9672 37.042H86.8332L86.4132 35.551H86.3292C86.0492 36.041 85.6432 36.447 85.1112 36.769C84.5792 37.091 83.9562 37.252 83.2422 37.252C81.8422 37.252 80.7992 36.811 80.1132 35.929C79.4412 35.047 79.1052 33.668 79.1052 31.792C79.1052 30 79.5252 28.642 80.3652 27.718C81.2192 26.78 82.3882 26.311 83.8722 26.311C84.3902 26.311 84.7962 26.339 85.0902 26.395C85.3982 26.451 85.7272 26.542 86.0772 26.668V22.3H87.7572V33.388ZM83.5152 35.782C84.2292 35.782 84.7962 35.6 85.2162 35.236C85.6362 34.858 85.9232 34.291 86.0772 33.535V28.327C85.8252 28.131 85.5382 27.991 85.2162 27.907C84.8942 27.823 84.4672 27.781 83.9352 27.781C82.9692 27.781 82.2132 28.103 81.6672 28.747C81.1212 29.377 80.8482 30.392 80.8482 31.792C80.8482 32.366 80.8902 32.898 80.9742 33.388C81.0722 33.878 81.2262 34.298 81.4362 34.648C81.6462 34.998 81.9192 35.278 82.2552 35.488C82.6052 35.684 83.0252 35.782 83.5152 35.782ZM96.5916 22.3H98.2716V27.529H98.3556C98.6776 27.123 99.0836 26.808 99.5736 26.584C100.078 26.36 100.624 26.248 101.212 26.248C102.57 26.248 103.585 26.682 104.257 27.55C104.943 28.418 105.286 29.762 105.286 31.582C105.286 33.416 104.838 34.809 103.942 35.761C103.046 36.713 101.786 37.189 100.162 37.189C99.3776 37.189 98.6636 37.105 98.0196 36.937C97.3896 36.769 96.9136 36.587 96.5916 36.391V22.3ZM100.918 27.718C100.218 27.718 99.6506 27.914 99.2166 28.306C98.7826 28.698 98.4676 29.251 98.2716 29.965V35.257C98.5376 35.411 98.8596 35.53 99.2376 35.614C99.6156 35.684 100.008 35.719 100.414 35.719C101.366 35.719 102.122 35.383 102.682 34.711C103.256 34.039 103.543 32.989 103.543 31.561C103.543 31.015 103.494 30.504 103.396 30.028C103.298 29.552 103.144 29.146 102.934 28.81C102.724 28.474 102.451 28.208 102.115 28.012C101.793 27.816 101.394 27.718 100.918 27.718ZM110.773 33.304L111.361 35.32H111.466L111.928 33.283L113.965 26.5H115.666L112.558 35.929C112.32 36.615 112.082 37.28 111.844 37.924C111.62 38.568 111.368 39.142 111.088 39.646C110.808 40.15 110.493 40.549 110.143 40.843C109.793 41.151 109.387 41.305 108.925 41.305C108.421 41.305 108.008 41.235 107.686 41.095L107.98 39.646C108.162 39.716 108.337 39.751 108.505 39.751C108.897 39.751 109.275 39.541 109.639 39.121C110.003 38.715 110.304 38.008 110.542 37L106.321 26.5H108.253L110.773 33.304Z" fill="black"/>
</svg>
