<svg width="271" height="445" viewBox="0 0 271 445" fill="none" xmlns="http://www.w3.org/2000/svg">
<path d="M157 276L157 298" stroke="#1D1D1B" stroke-width="0.926006" stroke-miterlimit="10"/>
<path d="M57.3651 11.2931C57.3651 11.2931 56.8067 8.90193 60.0493 8.81803C63.2919 8.73413 91.7667 8 91.7667 8L94 9.63605V42.8186L90.5427 45H57.3866L57 40.8889L57.3651 11.2931Z" fill="#1D1D1B"/>
<path d="M61.2099 12H90.5607V16.2165L75.8748 17.4427L90.5607 18.6905L75.2908 20.6697L90.5607 21.6593L75.8748 23.4018L90.5607 24.6495L75.8748 27.1235H90.5607L76.8553 29.8557H90.5607L75.8748 31.9854L90.5607 33.0611L75.2908 35.2984L90.5607 36.7828L75.8748 38.2887L92 39.5149L75.2908 40.5045L90.3103 41.9889L87.1812 43H76.605H61.2099L60 39.7731V14.7321L61.2099 12Z" fill="#F2EBE9"/>
<path d="M29.9067 68.7715C29.9067 74.1648 25.5286 78.543 20.1353 78.543C14.7419 78.543 10.3638 74.1648 10.3638 68.7715C10.3638 63.3781 14.7419 59 20.1353 59C25.5286 59 29.9067 63.3781 29.9067 68.7715Z" fill="#1D1D1B"/>
<path d="M18.0627 65.726V62.1938L20.1143 61.517L22.7581 63.6321V67.841L26.7767 68.7716L25.127 71.3519L22.4197 71.1404V75.3705L20.1143 76.555L18.0627 75.1167V71.0347L14.7633 70.6328L13.3462 66.5297L18.0627 65.726Z" fill="#F2EBE9"/>
<path d="M20.1138 64.5414V68.7715L14.1494 68.8349L18.168 66.6987L20.1138 64.5414Z" fill="#1D1D1B"/>
<path d="M22.5244 69.5752L20.0498 71.0346L21.2977 73.4034L23.9415 70.4212L22.5244 69.5752Z" fill="#1D1D1B"/>
<path d="M13.3459 59.4441L10.3425 63.0185L8.75627 68.8348L9.34848 73.7629L0.52876 73.4033L6.93733 71.9651L1.81894 71.7113L7.46609 70.548L2.5169 69.5751L6.93733 68.3061L2.74955 67.3755L8.75627 65.8315L1.92469 64.5413L8.29096 63.8222L2.05159 62.0667L8.98892 61.5168L0 60.1843L13.3459 59.4441Z" fill="#1D1D1B"/>
<path d="M82 0H131.565L134 3.66838V49L130.569 3.66838L82 0Z" fill="#1D1D1B"/>
<path d="M39 56.3206V68.3511L207.858 72L219 56L39 56.3206Z" fill="#1D1D1B"/>
<path d="M263.313 81.481H258.596V94.7634H263.313V81.481Z" fill="#1D1D1B"/>
<path d="M261.811 98.3802L257.285 99.9453L255.572 103.477L257.285 107.623L263.313 109.082L267.902 106.798V101.807L266.041 99.3319L261.811 98.3802Z" fill="#1D1D1B"/>
<path d="M261.811 101.405H259.484V103.731L260.648 106.375H263.397L265.829 104.725L265.005 102.441L261.811 101.405Z" fill="#F2EBE9"/>
<path d="M240 102V119.035L242.77 120L271 119.035L245.583 117.369L242.559 113.05L240 102Z" fill="#1D1D1B"/>
<path d="M216 63H237.709L240.972 65.9182L244 67.0811V74.2999H240.503L239.372 96H226.279L236.792 93.9814L223.464 90.8657L236.792 89.8783L222.995 87.5086L237.944 86.3019L223.229 84.6124L236.792 82.0672L221.843 80.5751L236.792 78.381L221.843 76.6476L235.832 74.2999L220.905 72.8517L236.792 70.6795L219.263 69.2533L236.792 67.0811L216 63Z" fill="#1D1D1B"/>
<path d="M93 71V93.168L96.9724 98H130.515L133 93.168V71H93Z" fill="#1D1D1B"/>
<path d="M146 78H137V91H146V78Z" fill="#1D1D1B"/>
<path d="M139 83.9969C139 83.9969 152.184 83.6608 154.311 94.838C156.439 106.036 171.334 104.271 176.131 98.1365C180.929 92.0017 178.259 67 178.259 67" stroke="#1D1D1B" stroke-width="1.42968" stroke-miterlimit="10"/>
<path d="M168 59V108H240" stroke="#1D1D1B" stroke-width="1.54732" stroke-miterlimit="10"/>
<path d="M68 66.5V135" stroke="#1D1D1B" stroke-miterlimit="10"/>
<path d="M193.1 88L191 75L201 84.6262L195.74 83.8411L193.1 88Z" fill="#1D1D1B"/>
<path d="M56.3 70.2004L54.9667 70L53.7 72.0661L51.3333 70.6938L50 71.3722V72.1277L53.1833 73.8392L51.3333 76.044L52.6 77H53.2667L54.75 74.1938L56.6 76.2445L58.0833 76.1828L59 75.2114L55.3833 73.022L56.75 70.7555L56.3 70.2004Z" fill="#F2EBE9"/>
<path d="M205.406 56.5884L201.451 56.0807L195.973 57.2017L192.927 61.8971L194.048 67.7135L199.97 71.0975L206.569 68.8556L208.05 65.5561L209.361 62.0029L205.406 56.5884ZM206.463 66.529L202.931 68.5172L197.327 68.1999L194.958 63.3776L196.544 58.8303L200.52 57.6247L204.496 59.1476L207.056 62.722L206.463 66.529Z" fill="#F2EBE9"/>
<path d="M201.747 63.0182L201.704 60.3321L201.112 59.6341L200.076 59.9937V62.9124H197.792L197.051 63.5469L197.39 64.1392L200.182 64.2449L200.224 66.4446L201.26 66.783L201.937 66.2331L201.895 64.4776L204.052 64.4353L204.729 63.6527L204.623 63.0605L201.747 63.0182Z" fill="#F2EBE9"/>
<path d="M123.165 27.0034L120.013 24.0634L114.62 24L111.067 24.6134L108 29.4568L108.698 35.1463L112.843 38.9322L119.929 38.763L122.784 35.6962L124.159 30.7681L123.165 27.0034Z" fill="#1D1D1B"/>
<path d="M112.886 27.2149L112.759 27.3207L112.399 28.8647L113.859 31.0432L115.72 31.1912L112.886 27.2149Z" fill="#F2EBE9"/>
<path d="M117.158 29.2031L119.612 27.4687L120.986 27.5745L117.158 30.324V29.2031Z" fill="#F2EBE9"/>
<path d="M115.804 33.5387L117.792 36.6479L119.653 36.5209L117.263 33.4964L116.481 32.6293L115.804 33.5387Z" fill="#F2EBE9"/>
<path d="M113.668 32.841L112.653 32.2911L110.157 34.2369L110.305 35.2733L113.668 32.841Z" fill="#F2EBE9"/>
<path d="M118.237 31.8679L120.394 34.4271L120.479 35.5481L121.917 32.8197L121.008 33.0735L121.24 30.5989L119.485 31.5507L120.5 30.3663L118.237 31.8679Z" fill="#F2EBE9"/>
<path d="M105.341 55.149L105.172 62.9112L103.924 64.3917L94.9776 64.3705L93.3701 62.3613L93.6028 54.3029L94.7872 53.1185L104.263 53.4146L105.341 55.149Z" fill="#F2EBE9"/>
<path d="M95.0625 60.7539L95.3798 55.7624L96.1412 54.5357L103.671 54.4511L98.6792 56.6719L95.0625 60.7539Z" fill="#1D1D1B"/>
<path d="M122.895 55.149L122.726 62.9112L121.478 64.3917L112.532 64.3705L110.924 62.3613L111.157 54.3029L112.341 53.1185L121.817 53.4146L122.895 55.149Z" fill="#F2EBE9"/>
<path d="M112.617 60.7539L112.934 55.7624L113.695 54.5357L121.225 54.4511L116.233 56.6719L112.617 60.7539Z" fill="#1D1D1B"/>
<path d="M74.5659 134.381L74.3967 142.143L73.1488 143.624L64.2022 143.602L62.5947 141.593L62.8274 133.535L63.9907 132.35L73.4872 132.646L74.5659 134.381Z" fill="#1D1D1B"/>
<path d="M64.2871 139.986L64.5832 134.994L65.3446 133.767L72.8742 133.683L67.8827 135.904L64.2871 139.986Z" fill="#F2EBE9"/>
<path d="M123.919 123.192L113.103 123L109.126 128.817L109 142.589L112.409 144H127.981L132 139.68L131.747 126.443L123.919 123.192Z" fill="black"/>
<path d="M115.864 127L113 130.039L113.292 137.855L114.636 138.862L126.266 139L128 135.684L127.143 129.309L115.864 127Z" fill="#F2EBE9"/>
<path d="M62 117H74" stroke="#1D1D1B" stroke-width="1.58021" stroke-miterlimit="10"/>
<path d="M62 113H74" stroke="#1D1D1B" stroke-width="1.58021" stroke-miterlimit="10"/>
<path d="M79 133H113" stroke="#1D1D1B" stroke-miterlimit="10"/>
<path d="M130 94C130 95.093 129.116 96 128 96C126.907 96 126 95.1163 126 94C126 92.907 126.884 92 128 92C129.116 92.0233 130 92.907 130 94Z" fill="white"/>
<path d="M102 94C102 95.093 101.116 96 100 96C98.907 96 98 95.1163 98 94C98 92.907 98.8837 92 100 92C101.116 92.0233 102 92.907 102 94Z" fill="white"/>
<path d="M122.723 130.239L121.085 130L119.532 132.354L116.638 130.791L115 131.563V132.428L118.915 134.395L116.638 136.897L118.191 138H119L120.809 134.782L123.085 137.136L124.894 137.062L126 135.959L121.574 133.457L123.255 130.864L122.723 130.239Z" fill="#1D1D1B"/>
<path d="M131 132H164.555V144H208V139.5" stroke="black"/>
<path d="M78.6364 129.167H57L79.5455 127L81 129.167L78.6364 141V129.167Z" fill="black"/>
<path d="M220.25 124.069H191L194.981 122H227V141H220.25L223.365 138.743V126.139L220.25 124.069Z" fill="black"/>
<path d="M192 138.609V126.957V124H221.314L225 126.957V137.739L221.314 140H195.335L192 138.609Z" fill="#F2EBE9" stroke="black" stroke-width="1.03942"/>
<path d="M200.158 126H195L200.158 128.333L199.605 135.5L195 137H202V127.667L200.158 126Z" fill="black"/>
<path d="M211.158 126H206L211.158 128.333L210.605 135.5L206 137H213V127.667L211.158 126Z" fill="black"/>
<path d="M219.421 126H215L219.421 128.333L218.947 135.5L215 137H221V127.667L219.421 126Z" fill="black"/>
<rect x="195" y="126" width="2" height="11" fill="black"/>
<rect x="204" y="126" width="2" height="11" fill="black"/>
<rect x="215" y="126" width="1" height="11" fill="black"/>
<path d="M189 132.5C189 133.32 188.337 134 187.5 134C186.68 134 186 133.337 186 132.5C186 131.68 186.663 131 187.5 131C188.337 131.017 189 131.68 189 132.5Z" fill="#1D1D1B"/>
<path d="M182 132.5C182 133.32 181.337 134 180.5 134C179.68 134 179 133.337 179 132.5C179 131.68 179.663 131 180.5 131C181.337 131.017 182 131.68 182 132.5Z" fill="#1D1D1B"/>
<path d="M153 132C153 133.093 152.116 134 151 134C149.907 134 149 133.116 149 132C149 130.907 149.884 130 151 130C152.116 130.023 153 130.907 153 132Z" fill="#1D1D1B"/>
<path d="M40 137L33.5122 137L38.8049 135.493L36.2439 135.493L38.8049 134.438L37.439 133.836L38.8049 133.082L37.439 132.63L38.8049 131.575L36.2439 130.822L38.8049 130.068L37.9512 130.068L36.2439 129.616L38.8049 128.562L35.3902 127.658L38.8049 126.904L33 126L40 126L40 137Z" fill="black"/>
<path d="M34.7027 129.818L33.5094 128.334L31.591 128.073L29.3101 128.203L27.6787 129.752L27.8449 132.9L29.4914 134.498L32.6635 134.759L34.31 133.21L34.7027 129.818Z" fill="#1D1D1B"/>
<path d="M29.3408 129.54L32.4374 133.878L32.9812 133.405L30.232 129.279L29.3408 129.54Z" fill="white"/>
<path d="M31.168 128.741L32.9353 128.823L33.7057 129.703V130.617L32.7541 129.263L31.168 128.741Z" fill="white"/>
<path d="M24 138V126L22 138H24Z" fill="black"/>
<path d="M125 142V178H157.5V197.5" stroke="black"/>
<path d="M148.644 430.795L146.625 424.638L146.277 423L140.5 423.328L144.746 424.048V425.227L145.651 427.651L142.797 428.044L146.277 429.157L143.423 429.878L145.651 430.402L143.423 430.795L147.6 432.105L144.746 432.563L147.6 433.611H146.277L148.992 434.659L145.651 435.118L150.523 435.511L145.651 436.297H157.066L155.048 437.083L165.419 436.297L165.628 437.083L161.869 438H167.785L170.5 436.559V431.319L166.045 434.659L161.869 435.511L157.066 435.118L151.358 433.939L148.644 430.795Z" fill="black"/>
<path d="M179.5 425.692L179.949 443.051L181.474 445H184.795L186.5 443.051V424.949L184.795 423H180.936L179.5 425.692Z" fill="black"/>
<path d="M185.067 431.739L187.669 436.252L185.925 440.656L183.805 441.905L179.696 440.373L177.435 437.047L178.72 433.053L181.145 431.277L185.067 431.739Z" fill="black"/>
<path d="M184.167 433L186.5 435.596L185.967 438.34L184.9 439.527C184.656 439.527 184.06 439.601 183.633 439.898C183.207 440.195 182.256 439.774 181.833 439.527L180.433 438.86L179.5 437.079V435.967V434.706L181.167 433H184.167Z" fill="#F2EBE9"/>
<path d="M184.5 426H179.5L179.885 427.5L184.5 428V426Z" fill="#F2EBE9" stroke="black" stroke-width="1.0283"/>
<path d="M184.5 429H179.5L179.885 429.75L184.5 430V429Z" fill="#F2EBE9"/>
<path d="M174.597 417.51L181.795 419.425L184.055 420L187.905 417.989L190.5 415.019V409.464L188.575 404.004C187.347 403.174 184.725 401.513 184.055 401.513C183.218 401.513 181.795 400.843 180.372 401.034C179.234 401.188 176.941 401.418 175.936 401.513L172.923 404.483L171.5 411.188L174.597 417.51Z" fill="black"/>
<path d="M176.5 410.318L177.019 415.078L180.426 417H182.5L184.5 415.627V412.973L183.833 409.494L182.5 408.121C181.068 408.03 178.1 407.902 177.685 408.121C177.27 408.341 176.722 409.677 176.5 410.318Z" fill="#F2EBE9"/>
<path d="M179.771 404L177.5 405.575H182.715L186.5 407L184.986 404.975L182.715 404.525L179.771 404Z" fill="#F2EBE9"/>
<path d="M178.23 398.893L174.5 400.535L179.222 398L190.254 398.893L188.548 399.376L192.456 400.535L189.401 400.801L192.456 402.201H190.135L193.429 403.674H190.869L193.825 404.785L191.544 405.195L193.825 406.113L191.96 406.451L194.222 407.223L192.119 408.165L194.5 410H191.405L190.135 405.364L188.944 402.757L186.246 400.535L182.754 399.376L178.23 398.893Z" fill="black"/>
<path d="M164.146 413.531C162.094 413.201 157.892 412.555 157.5 412.608L161.068 411.684H168.623V410.628H165.195L168.204 409.375H165.195L168.204 408.781L164.706 407.792H168.623L165.195 407H170.792L170.023 411.024L171.352 413.069L174.5 418.413V425.67L171.981 426L170.792 418.413L168.204 416.038L164.146 413.531Z" fill="black"/>
<path d="M140.5 419.5H102V393.5H157V378" stroke="black"/>
</svg>
