<svg width="236" height="24" viewBox="0 0 236 24" fill="none" xmlns="http://www.w3.org/2000/svg">
<path d="M0 12.1013H132" stroke="black"/>
<path d="M181 23L168.951 23L178.78 19.8493L174.024 19.8493L178.78 17.6438L176.244 16.3836L178.78 14.8082L176.244 13.863L178.78 11.6575L174.024 10.0822L178.78 8.50685L177.195 8.50685L174.024 7.56164L178.78 5.35616L172.439 3.46575L178.78 1.89041L168 -7.70853e-07L181 -1.90735e-06L181 23Z" fill="black"/>
<path d="M170.966 8.58609L168.464 5.47522L164.443 4.92834L159.662 5.20178L156.242 8.44942L156.59 15.0471L160.042 18.3972L166.691 18.9442L170.143 15.6967L170.966 8.58609Z" fill="#1D1D1B"/>
<path d="M159.725 8.00498L166.216 17.0983L167.356 16.1069L161.593 7.45801L159.725 8.00498Z" fill="white"/>
<path d="M163.556 6.32971L167.261 6.5007L168.876 8.34673V10.2611L166.881 7.42366L163.556 6.32971Z" fill="white"/>
<path d="M198 8.84044L198 4.81911L198.635 4L200 4.81911L200 18L198.706 18L198 8.84044Z" fill="black"/>
<path d="M204.389 4L202 4.81911L202 18L204.389 18L205 7.54962L204.389 4Z" fill="black"/>
<path d="M208.61 4L207 4.85048L207 17.3763L208.61 19L209 17.9433L209 6.24225L208.61 4Z" fill="black"/>
<path d="M212 4.81911L211.465 4L210 4L210 16.9574L210.326 18L212 17.156L212 4.81911Z" fill="black"/>
<path d="M222 8.84044L222 4.81911L222.635 4L224 4.81911L224 18L222.706 18L222 8.84044Z" fill="black"/>
<path d="M228.389 4L226 4.81911L226 18L228.389 18L229 7.54962L228.389 4Z" fill="black"/>
<path d="M231.61 4L230 4.85048L230 17.3763L231.61 19L232 17.9433L232 6.24225L231.61 4Z" fill="black"/>
<path d="M236 4.81911L235.465 4L234 4L234 16.9574L234.326 18L236 17.156L236 4.81911Z" fill="black"/>
<path d="M150 24V0L145 24H150Z" fill="black"/>
</svg>
