<svg width="293" height="14" viewBox="0 0 293 14" fill="none" xmlns="http://www.w3.org/2000/svg">
<path d="M6.19377 2L0 5.47626V14L0.91573 6.90095L6.19377 3.77477L189.483 4.32022L234.204 2.00001L6.19377 2Z" fill="#1D1D1B"/>
<path d="M0.97998 8V0H23.5184V8H0.97998Z" fill="black"/>
<path d="M195.007 8V0H218.525V8H195.007Z" fill="black"/>
<path d="M180.308 0H35.2683L31.3579 1.1V6.5L35.2683 8H39.5342H72.0614L75.794 5.6V8L79.3489 5.6V7.5L82.7261 6.5V8H106.544L111.343 5.6V8L114.72 6.5V8L119.519 5.6V8L122.896 5.6V8L127.518 5.6L128.584 8L132.317 5.6L133.383 8H176.753L180.308 0Z" fill="black"/>
<path d="M231.264 8V2H293L285.904 8H231.264Z" fill="black"/>
<path d="M291.04 0.585405C271.798 0.557766 231.424 -0.0613652 230.284 0.00497008V1L291.04 0.585405Z" fill="black"/>
</svg>
