<svg width="178" height="386" viewBox="0 0 178 386" fill="none" xmlns="http://www.w3.org/2000/svg">
<path d="M0.711426 57.3387V70.6069L3.52346 73.1813L19.4849 73.7754V71.1613V57.3387L15.96 55.0019L2.49377 54.487L0.711426 57.3387Z" fill="#1D1D1B"/>
<path d="M5.30666 57.3389H15.2875L16.6341 60.7054V70.8447H7.99988L10.9704 69.4585V67.6366H13.9409L14.337 64.5868L13.9409 62.0916L12.5943 59.636L7.24735 59.4775L5.30666 61.4975L3.56396 60.7054L5.30666 57.3389Z" fill="#F2EBE9"/>
<path d="M164.598 372.559L165.707 371.173L169.151 370.184L172.67 371.692L173.271 375.846L171.608 377.272L164.598 372.559Z" fill="#1D1D1B"/>
<path d="M163.563 373.703L162.296 378.198L163.563 380.258L167.613 381.244L170.126 379.233L163.563 373.703Z" fill="#1D1D1B"/>
<path d="M158.889 360.138L161.226 363.029L165.305 364.019L164.117 368.495H160.553L157.859 372.178L157.226 375.228L158.493 378.832L159.563 380.258H145.383L158.889 360.138Z" fill="#1D1D1B"/>
<path d="M145.384 382.833L143.483 385.209L177.069 384.575L161.781 383.347L145.384 382.833Z" fill="#1D1D1B"/>
<path d="M160.678 342.287L164.045 340.029H169.115L173.075 340.623L174.541 344.425L176.323 349.535L172.917 353.535L168.52 355.713L163.015 354.882L159.569 351.079V346.287L160.678 342.287Z" fill="#1D1D1B"/>
<path d="M160.678 345.059L162.342 342.92L166.144 341.296L170.342 342.009L173.075 344.623L174.541 349.218L172.362 351.99L168.283 354.089L164.045 352.505L160.678 349.534V345.059Z" fill="#F2EBE9"/>
<path d="M167.847 346.762L170.857 344.465L170.54 343.91L168.481 343.396L164.797 343.752L164.045 344.901L167.847 346.762Z" fill="#1D1D1B"/>
<path d="M166.738 348.386C166.5 348.386 163.965 347.356 162.737 346.881L162.302 347.515L163.53 349.693L166.5 351.951L167.609 351.634C167.332 350.089 166.896 348.386 166.738 348.386Z" fill="#1D1D1B"/>
<path d="M171.649 345.851L168.282 348.505L168.995 351.238L172.362 349.337L171.966 346.406L171.649 345.851Z" fill="#1D1D1B"/>
<path d="M129.51 342.287L132.877 340.029H137.947L141.907 340.623L143.373 344.425L145.155 349.535L141.749 353.535L137.352 355.713L131.847 354.882L128.401 351.079V346.287L129.51 342.287Z" fill="#1D1D1B"/>
<path d="M129.51 345.059L131.174 342.92L134.976 341.296L139.174 342.009L141.907 344.623L143.373 349.218L141.194 351.99L137.115 354.089L132.877 352.505L129.51 349.534V345.059Z" fill="#F2EBE9"/>
<path d="M136.679 346.762L139.689 344.465L139.372 343.91L137.312 343.396L133.629 343.752L132.876 344.901L136.679 346.762Z" fill="#1D1D1B"/>
<path d="M135.57 348.386C135.332 348.386 132.797 347.356 131.569 346.881L131.134 347.515L132.362 349.693L135.332 351.951L136.441 351.634C136.164 350.089 135.728 348.386 135.57 348.386Z" fill="#1D1D1B"/>
<path d="M140.481 345.851L137.115 348.505L137.828 351.238L141.194 349.337L140.798 346.406L140.481 345.851Z" fill="#1D1D1B"/>
<path d="M121.363 349.078H61.037V64.5413H28.8633" stroke="black" stroke-width="1.00543"/>
<path d="M148.008 348.575L145.494 343.045H153.035V344.051V349.078L148.51 351.089L153.035 352.094L148.008 353.602L152.532 356.116H139.461L145.494 353.602L148.008 348.575Z" fill="black"/>
<path d="M69.4857 181.012L69.2217 192.303L67.4059 194.448L54.4315 194.382L52.1206 191.477L52.4508 179.79L54.1344 178.074L67.9011 178.536L69.4857 181.012Z" fill="#1D1D1B"/>
<path d="M54.5635 189.166L54.9926 181.903L56.1151 180.12L67.0426 180.021L59.7796 183.256L54.5635 189.166Z" fill="#F2EBE9"/>
<path d="M64.1382 167.443L62.7186 166.222L59.3512 166.09L57.9316 167.311L58.0637 177.347L63.9731 177.578L64.1382 167.443Z" fill="#1D1D1B"/>
<path d="M57.9316 225.679L59.3512 226.438L62.7186 226.504L64.1382 225.778L63.9731 195.405L58.0637 195.273L57.9316 225.679Z" fill="#1D1D1B"/>
<path d="M56.4456 172.461V176.555H51.9888L56.4456 172.461Z" fill="#1D1D1B"/>
<path d="M4.73324 68.563L9.76039 63.0332L7.74953 61.525L3.2251 65.5467L4.73324 68.563Z" fill="#F2EBE9"/>
<path d="M51.5274 17.2861H46.8785L45.9561 16.3035L46.8785 14.2698H62.0429V16.2121L51.5274 17.2861Z" fill="black"/>
<path d="M45.9561 9.86034L46.8785 12.2588H62.0429V9.86034L50.0331 9.24255L45.9561 9.86034Z" fill="black"/>
<path d="M45.9561 4.82825L46.9046 7.23184H61.1703L63.0484 4.82825L61.8342 4.21555H48.4981L45.9561 4.82825Z" fill="black"/>
<path d="M46.8785 0.193604L45.9561 0.737913V2.20446H60.8622L62.0429 1.88693L61.0836 0.193604H46.8785Z" fill="black"/>
<circle cx="61.5402" cy="266.13" r="7.54072" fill="#66F777"/>
<path d="M66.1141 266.658C66.1141 269.418 63.8819 271.709 61.0622 271.709C58.3013 271.709 56.0103 269.477 56.0103 266.658C56.0103 263.897 58.2425 261.606 61.0622 261.606C63.8819 261.664 66.1141 263.897 66.1141 266.658Z" fill="black"/>
</svg>
