<svg width="64" height="113" viewBox="0 0 64 113" fill="none" xmlns="http://www.w3.org/2000/svg">
<path d="M19 53.1494L35.1082 53.1494L36 50.3657L35.1082 22.1494L33.5104 47.5629L29.423 50.5929L19 53.1494Z" fill="black"/>
<path d="M0 28.1494L-9.48225e-07 6.45656L2.84147 3.18832L3.96662 0.149416L10.9464 0.149415L10.9464 3.647L32 4.77464L32 17.8859L30.0357 7.37399L27.0226 20.6955L26.0691 7.37399L23.7616 21.1542L22.5983 6.20809L20.9583 20.9248L18.4982 7.37399L17.0489 22.3201L14.913 7.37399L13.2348 22.3201L10.9464 8.31049L9.55423 23.2566L7.45649 7.37399L6.06436 24.9002L3.96662 7.37399L0 28.1494Z" fill="black"/>
<path d="M29.4256 102.149L29.4256 75.861L16 75.861L16 58.1494L50 58.1494L50 75.4625L37.3669 76.6741L37.3669 98.4509L29.4256 102.149Z" fill="black"/>
<path d="M32 74.1494L32 61.1494L43 61.1494L42.3986 63.2767L39.4072 63.9183L37.5079 65.9442L37.5079 69.152L37.5079 71.0598L42.0978 71.9208L42.0978 74.1494L32 74.1494Z" fill="#F2EBE9"/>
<path d="M19.0122 32.1494L15.6437 31.2525L15.0122 28.6815L12.1457 28.6815L12 26.6636L15.0122 26.6636L15.498 23.6292L19.0122 22.1494L21.7975 22.1494L24.5992 23.6292L24.5992 26.544L28 26.544L28 28.9057L24.7126 28.9057L23.0121 31.2525L19.0122 32.1494Z" fill="black"/>
<path d="M15 27.1494L22 26.5494L15 26.1494L15 27.1494Z" fill="white"/>
<path d="M64 107.149H20L56.1935 112.149L64 107.149Z" fill="black"/>
</svg>
