<svg width="41" height="20" viewBox="0 0 41 20" fill="none" xmlns="http://www.w3.org/2000/svg">
<path d="M7.41405 0.862255L13.0459 0H18.3648L22.4948 2.09405L25.6861 6.65168V10.5318C24.2678 13.1391 21.1557 18.3907 20.0543 18.5385C18.6777 18.7233 14.9857 18.2921 13.0459 17.6146C11.106 16.9372 7.41405 16.1365 6.78828 15.5822C6.16252 15.0279 4.03496 11.5789 3.84723 11.2093C3.69705 10.9137 4.36869 7.43182 4.72329 5.72784L7.41405 0.862255Z" fill="black"/>
<path d="M12.5759 2.73267L7.84763 5.2713L6.55811 8.5957L7.41779 13.6125L11.7776 15.2445L17.9182 15.8489L21.6639 11.0739L22.9535 8.5957C22.4622 7.6689 21.4552 5.7065 21.3569 5.2713C21.2587 4.83611 19.0235 3.76021 17.9182 3.27666L12.5759 2.73267Z" fill="#F2EBE9"/>
<path d="M10.3151 5.93689L8.82371 10.1003L10.8743 13.3315L14.6674 14.1367L18.3932 12.3373L19.3835 7.12342L16.2327 4.99232L10.3151 5.93689Z" fill="black"/>
<path d="M11.3872 7.27236L10.8228 8.64134L10.3838 10.3079L12.0771 12.5697H14.7738L17.2824 11.2603L18.035 8.93895L17.2824 7.27236L14.7738 6.55811L11.3872 7.27236Z" fill="#F2EBE9"/>
<path d="M10.0662 7.10943L7.86913 4.61657L8.87353 3.30782L10.7568 6.36158L10.0662 7.10943Z" fill="black"/>
<path d="M13.5189 6.36158V2.18604H15.0255L14.7116 6.04997L13.5189 6.36158Z" fill="black"/>
<path d="M16.9715 6.67318L18.9803 3.30782L20.8008 3.99336L18.227 7.54568L16.9715 6.67318Z" fill="black"/>
<path d="M18.227 9.35301L23.249 8.72979L23.5001 10.7241L18.227 10.5371V9.35301Z" fill="black"/>
<path d="M20.4241 14.3387L17.5365 12.3444L16.5948 13.1546L18.9803 15.2736L20.4241 14.3387Z" fill="black"/>
<path d="M15.9671 16.3953L15.0255 13.5909L14.0838 14.0271L15.0255 16.3953H15.9671Z" fill="black"/>
<path d="M13.0794 16.3953V13.5909H11.6984L10.7568 16.0837L13.0794 16.3953Z" fill="black"/>
<path d="M6.99028 14.3387L10.0662 11.8459L9.31295 11.098L5.60923 13.1546L6.99028 14.3387Z" fill="black"/>
<path d="M4.9187 8.29354L9.31295 9.35301L10.0662 8.72979L5.60923 6.67318L4.9187 8.29354Z" fill="black"/>
<path d="M2.94862 11.2321V7.10474H0.368578L1.84289 7.98024H0.368578L1.84289 8.66814L0 9.10589L2.33432 10.0439H0.368578L2.33432 10.6693L0.368578 11.2321L2.33432 11.92L0.368578 12.2327L2.33432 12.8581L0.368578 13.2333L2.94862 13.8586L0.368578 14.3589L2.94862 14.8592L0.675726 15.5471L4.23864 16.2976L1.10573 16.6102L5.09866 17.2356L1.47431 17.5483L5.71295 18.0486L1.84289 18.3612L7.31012 18.799L2.94862 19.2368L15.8488 19.6745L6.81869 17.5483L4.23864 14.8592L2.94862 11.2321Z" fill="black"/>
<path d="M41 12.3081C41 14.6752 39.1027 16.6161 36.7369 16.6161C34.3946 16.6161 32.4739 14.6989 32.4739 12.3081C32.4739 9.94102 34.3712 8 36.7369 8C39.1027 8 41 9.91735 41 12.3081Z" fill="#1D1D1B"/>
<path d="M35.8467 11.4659V9.92736L36.7602 9.61963L37.9079 10.5428V12.3891L39.6412 12.8152L38.9386 13.9514L37.7439 13.8566V15.703L36.7602 16.2237L35.8467 15.5846V13.8093L34.4179 13.62L33.8088 11.821L35.8467 11.4659Z" fill="#F2EBE9"/>
<path d="M36.7602 10.9458V12.8158L34.1602 12.8394L35.9169 11.8926L36.7602 10.9458Z" fill="#1D1D1B"/>
<path d="M33.809 8.72046L32.4973 10.2827L31.818 12.8392L32.0757 14.9932L28.2342 14.8512L31.0216 14.2121L28.7964 14.0937L31.2559 13.5966L29.1009 13.1706L31.0216 12.6024L29.1946 12.2001L31.818 11.5136L28.8433 10.9455L31.6072 10.6378L28.8901 9.85668L31.9117 9.61996L28 9.02819L33.809 8.72046Z" fill="#1D1D1B"/>
</svg>
