<svg width="11" height="23" viewBox="0 0 11 23" fill="none" xmlns="http://www.w3.org/2000/svg">
<path d="M0.605637 4.6645L3.49069 1.71638L7.75525 1.57367L9.29031 6.59676L4.0885 9.15465L0.605637 4.6645Z" fill="black"/>
<ellipse cx="4.68614" cy="4.72993" rx="1.97494" ry="2.07102" transform="rotate(-26.1848 4.68614 4.72993)" fill="#F2EBE9"/>
<path d="M2 16.8902L4.74126 15L8.06993 16.0883L8.65734 16.8902L9 19.0668L8.65734 21.1862C8.4289 21.6253 7.91329 22.5723 7.67832 22.8473C7.38462 23.1909 5.81818 22.8473 5.52448 22.8473C5.28951 22.8473 3.6317 22.6181 2.83217 22.5036L2 20.4415V16.8902Z" fill="black"/>
<path d="M4.92727 18L2 20.1509L2.50909 21L4.92727 19.3019L8.17273 21L9 20.1509L4.92727 18Z" fill="#F2EBE9"/>
</svg>
